G04 ================== begin FILE IDENTIFICATION RECORD ==================*
G04 Layout Name:  C:/USERS/USER/DESKTOP/WORKSPACE/AVRUSB500/allegro/AVRUSB500.brd*
G04 Film Name:    Design*
G04 File Format:  Gerber RS274X*
G04 File Origin:  Cadence Allegro 17.2-P019*
G04 Origin Date:  Mon Jul 29 16:58:26 2019*
G04 *
G04 Layer:  VIA CLASS/BOTTOM*
G04 Layer:  VIA CLASS/TOP*
G04 Layer:  ROUTE KEEPOUT/ALL*
G04 Layer:  ROUTE KEEPIN/ALL*
G04 Layer:  REF DES/SILKSCREEN_TOP*
G04 Layer:  REF DES/SILKSCREEN_BOTTOM*
G04 Layer:  PIN/BOTTOM*
G04 Layer:  PIN/TOP*
G04 Layer:  PACKAGE KEEPIN/ALL*
G04 Layer:  PACKAGE GEOMETRY/PIN_NUMBER*
G04 Layer:  PACKAGE GEOMETRY/SILKSCREEN_TOP*
G04 Layer:  PACKAGE GEOMETRY/SILKSCREEN_BOTTOM*
G04 Layer:  PACKAGE GEOMETRY/SOLDERMASK_TOP*
G04 Layer:  PACKAGE GEOMETRY/SOLDERMASK_BOTTOM*
G04 Layer:  PACKAGE GEOMETRY/PASTEMASK_TOP*
G04 Layer:  PACKAGE GEOMETRY/PASTEMASK_BOTTOM*
G04 Layer:  ETCH/BOTTOM*
G04 Layer:  ETCH/TOP*
G04 Layer:  BOARD GEOMETRY/OUTLINE*
G04 Layer:  BOARD GEOMETRY/SILKSCREEN_TOP*
G04 Layer:  BOARD GEOMETRY/SILKSCREEN_BOTTOM*
G04 Layer:  BOARD GEOMETRY/SOLDERMASK_TOP*
G04 Layer:  BOARD GEOMETRY/SOLDERMASK_BOTTOM*
G04 Layer:  BOARD GEOMETRY/DESIGN_OUTLINE*
G04 *
G04 Offset:    (0.0000 0.0000)*
G04 Mirror:    No*
G04 Mode:      Positive*
G04 Rotation:  0*
G04 FullContactRelief:  No*
G04 UndefLineWidth:     0.0000*
G04 ================== end FILE IDENTIFICATION RECORD ====================*
%FSLAX55Y55*MOMM*%
%IR0*IPPOS*OFA0.00000B0.00000*MIA0B0*SFA1.00000B1.00000*%
%ADD11O,1.8999X1.1999*%
%ADD15R,1.7X.4*%
%ADD18C,.61*%
%ADD10C,.635*%
%ADD20O,.4569X1.778*%
%ADD19O,1.778X.4569*%
%ADD21R,.4569X1.778*%
%ADD22R,1.778X.4569*%
%ADD14R,1.7X1.1001*%
%ADD12C,1.3211*%
%ADD13R,1.3211X1.3211*%
%ADD24C,1.5751*%
%ADD23R,1.5751X1.5751*%
%ADD16R,1.4986X2.8448*%
%ADD17R,2.8448X1.4986*%
%ADD25C,.203*%
%ADD26C,.254*%
%ADD27C,.1524*%
%ADD34R,.5084X1.3094*%
%ADD31C,.8644*%
%ADD33R,3.9859X.5084*%
%ADD30R,5.0804X5.0804*%
%ADD29C,1.5756*%
%ADD32C,1.8296*%
%ADD28R,.5084X.5084*%
G75*
%LPD*%
G75*
G36*
G01X26462010Y13508010D02*
Y16870980D01*
X26972770D01*
Y17379020D01*
X26462010D01*
Y17407990D01*
X36861990D01*
Y13508010D01*
X26462010D01*
G37*
%LPC*%
G75*
G36*
G01X34159800Y16921220D02*
X34027700D01*
G02X34014980Y16933940I0J12720D01*
G01Y17066060D01*
G02X34027700Y17078780I12720J0D01*
G01X34159800D01*
G02X34172520Y17066060I0J-12720D01*
G01Y16933940D01*
G02X34159800Y16921220I-12720J0D01*
G37*
G36*
G01X27659810Y16577480D02*
X27527690D01*
G02X27514980Y16590190I5J12715D01*
G01Y16722310D01*
G02X27527690Y16735020I12715J-5D01*
G01X27659810D01*
G02X27672520Y16722310I-5J-12715D01*
G01Y16590190D01*
G02X27659810Y16577480I-12715J5D01*
G37*
G36*
G01X26909810D02*
X26777690D01*
G02X26764980Y16590190I5J12715D01*
G01Y16722310D01*
G02X26777690Y16735020I12715J-5D01*
G01X26909810D01*
G02X26922520Y16722310I-5J-12715D01*
G01Y16590190D01*
G02X26909810Y16577480I-12715J5D01*
G37*
G36*
G01X36476950Y16599900D02*
G02Y16542100I86800J-28900D01*
G01X36475800Y16545580D01*
X36462720D01*
G02Y16596420I101030J25420D01*
G01X36475800D01*
X36476950Y16599900D01*
G37*
G36*
G01X33208410Y16460260D02*
G02X33163330Y16444790I-31109J17236D01*
G01Y16642310D01*
G02X33208410Y16626840I13971J-32706D01*
G03X33214170Y16622090I8892J4916D01*
G01Y16465010D01*
G03X33208410Y16460260I3132J-9666D01*
G37*
G36*
G01X26918320Y16376830D02*
G02Y16427670I-74570J25420D01*
G01X26931630D01*
G02Y16376830I-87880J-25420D01*
G01X26918320D01*
G37*
G36*
G01X27619170Y16314370D02*
G02X27568330I-25420J87880D01*
G01Y16327680D01*
G02X27519180Y16376830I25420J74570D01*
G01X27505870D01*
G02Y16427670I87880J25420D01*
G01X27519180D01*
G02X27619170Y16327680I74570J-25420D01*
G01Y16314370D01*
G37*
G36*
G01X34248230Y16213330D02*
X34225830D01*
Y16264170D01*
X34227170D01*
X34230920Y16267920D01*
X34276670D01*
Y16217080D01*
X34251980D01*
X34248230Y16213330D01*
G37*
G36*
G01X30369170Y16222450D02*
G02X30318330I-25420J-34950D01*
G01Y16453880D01*
X30358620Y16494170D01*
X31318330D01*
Y16611670D01*
X31369170D01*
Y16443330D01*
X30379680D01*
X30369170Y16432820D01*
Y16222450D01*
G37*
G36*
G01X32793030Y16092080D02*
X32725830D01*
Y16142920D01*
X32771970D01*
X32788330Y16159280D01*
Y16270050D01*
G02X32839170I25420J34950D01*
G01Y16138220D01*
X32793030Y16092080D01*
G37*
G36*
G01X32280670D02*
X30877380D01*
X30928220Y16142920D01*
X32280670D01*
Y16092080D01*
G37*
G36*
G01X34244450Y16106000D02*
X34225830Y16087380D01*
Y16113800D01*
G02Y16183700I25420J34950D01*
G01Y16183710D01*
G02X34276670I25420J-34960D01*
G01Y16183700D01*
G02Y16113800I-25420J-34950D01*
G01Y16113790D01*
G02X34246850Y16105750I-25420J34960D01*
G01X34244450Y16106000D01*
G37*
G36*
G01X29339170Y15988800D02*
G02X29270540Y16024420I-25416J34956D01*
G01Y16024510D01*
G02X29341750Y16056670I43210J-760D01*
G01X29341770D01*
G02X29353080Y16005830I-28016J-32911D01*
G02X29339170Y15988800I-39326J17926D01*
G37*
G36*
G01X28353060Y15976220D02*
X28220940D01*
G02X28208220Y15988940I5J12725D01*
G01Y16121060D01*
G02X28220940Y16133780I12725J-5D01*
G01X28353060D01*
G02X28365780Y16121060I-5J-12725D01*
G01Y15988940D01*
G02X28353060Y15976220I-12725J5D01*
G37*
G36*
G01X32841300Y16017920D02*
G02Y15967080I34950J-25420D01*
G01X32725830D01*
Y16017920D01*
X32841300D01*
G37*
G36*
G01X34463050Y15917100D02*
G02X34347350Y16032800I-86800J28900D01*
G01X34350830Y16033950D01*
Y16047030D01*
G02X34401670I25420J-101030D01*
G01Y16033950D01*
X34405150Y16032800D01*
G02X34463050Y15974900I-28900J-86800D01*
G01X34464200Y15971420D01*
X34477280D01*
G02Y15920580I-101030J-25420D01*
G01X34464200D01*
X34463050Y15917100D01*
G37*
G36*
G01X33214170Y15871200D02*
G02X33161500Y15802700I-25422J-34952D01*
G01X33161460Y15802740D01*
G02X33161030Y15803100I27527J33316D01*
G02X33163330Y15871200I27721J33153D01*
G01Y16424170D01*
X33214170D01*
Y15871200D01*
G37*
G36*
G01X29462920Y15775580D02*
X29412080D01*
Y15826420D01*
X29455470D01*
X29462920Y15833870D01*
Y15775580D01*
G37*
G36*
G01X32870420Y15746330D02*
X32819580D01*
Y15801300D01*
G02X32870420I25420J34950D01*
G01Y15746330D01*
G37*
G36*
G01X28361570Y15775580D02*
G02X28212430I-74570J25420D01*
G01X28199120D01*
G02Y15826420I87880J25420D01*
G01X28212430D01*
G02X28361570I74570J-25420D01*
G01X28374880D01*
G02Y15775580I-87880J-25420D01*
G01X28361570D01*
G37*
G36*
G01X27342500Y15689280D02*
X27272500D01*
G02Y15834720I0J72720D01*
G01X27342500D01*
G02Y15689280I0J-72720D01*
G37*
G36*
G01X26972500D02*
X26902500D01*
G02Y15834720I0J72720D01*
G01X26972500D01*
G02Y15689280I0J-72720D01*
G37*
G36*
G01X29339170Y15746200D02*
G02X29288330I-25420J-34950D01*
G01Y15746210D01*
G02X29339170I25420J-34960D01*
G01Y15746200D01*
G37*
G36*
G01X32299600Y15677480D02*
G02X32280670Y15872780I-44350J94269D01*
G01Y15859700D01*
X32284150Y15858550D01*
G02X32342050Y15800650I-28900J-86800D01*
G01X32343200Y15797170D01*
X32356280D01*
G02Y15746330I-101030J-25420D01*
G01X32343200D01*
X32342050Y15742850D01*
G02X32301920Y15693070I-86795J28904D01*
G03X32299600Y15677480I5180J-8739D01*
G37*
G36*
G01X34295770Y15735490D02*
G02Y15648510I80480J-43490D01*
G03X34276670Y15643690I-8940J-4827D01*
G01Y15623330D01*
X34234870D01*
X34225830Y15632370D01*
Y15991370D01*
X34245420Y15971780D01*
Y15684680D01*
X34255930Y15674170D01*
X34274900D01*
G03X34285030Y15685100I0J10159D01*
G02X34295610Y15735210I91221J6912D01*
G03X34295770Y15735490I-8739J5179D01*
G37*
G36*
G01X33528410Y15610660D02*
G02X33507080Y15593700I-31111J17234D01*
G01Y15957550D01*
G02X33557920I25420J34950D01*
G01Y15598070D01*
G02X33546190Y15610660I19384J29820D01*
G03X33528410I-8890J-4918D01*
G37*
G36*
G01X33214170Y15551290D02*
G02X33163330I-25420J34957D01*
G01Y15551300D01*
G02X33214170I25420J34950D01*
G01Y15551290D01*
G37*
G36*
G01X36642500Y15463520D02*
X36485000D01*
G02X36472280Y15476240I0J12720D01*
G01Y15633760D01*
G02X36485000Y15646480I12720J0D01*
G01X36642500D01*
G02X36655220Y15633760I0J-12720D01*
G01Y15476240D01*
G02X36642500Y15463520I-12720J0D01*
G37*
G36*
G01X34295770Y15481490D02*
G02Y15394510I80480J-43490D01*
G03X34295610Y15394790I-8899J-4899D01*
G02X34289450Y15409100I80645J43196D01*
G01X34288300Y15412580D01*
X34225830D01*
Y15463420D01*
X34288300D01*
X34289450Y15466900D01*
G02X34295610Y15481210I86805J-28886D01*
G03X34295770Y15481490I-8739J5179D01*
G37*
G36*
G01X33214170Y15402450D02*
G02X33163330I-25420J-34950D01*
G01Y15402690D01*
G03Y15416250I-7565J6780D01*
G01Y15470470D01*
X33214170D01*
Y15416250D01*
G03Y15402690I7565J-6780D01*
G01Y15402450D01*
G37*
G36*
G01X34276670Y15054420D02*
X34225830D01*
Y15209420D01*
X34288300D01*
X34289450Y15212900D01*
G02X34295610Y15227210I86805J-28886D01*
G03X34295770Y15227490I-8739J5179D01*
G02Y15140510I80480J-43490D01*
G03X34276670Y15135690I-8940J-4827D01*
G01Y15054420D01*
G37*
G36*
G01X33692450Y14904580D02*
G02Y14955420I-34950J25420D01*
G01X33692460D01*
G02Y14904580I-34960J-25420D01*
G01X33692450D01*
G37*
G36*
G01X34455000Y14838520D02*
X34297500D01*
G02X34291570Y14839990I6J12721D01*
G03X34291410Y14840070I-4623J-9046D01*
G02X34284780Y14851240I6091J11168D01*
G01Y14904580D01*
X34225830D01*
Y14955420D01*
X34284780D01*
Y15008760D01*
G02X34291410Y15019930I12721J2D01*
G03X34291570Y15020010I-4463J9126D01*
G02X34297500Y15021480I5936J-11251D01*
G01X34455000D01*
G02X34467720Y15008760I0J-12720D01*
G01Y14851240D01*
G02X34455000Y14838520I-12720J0D01*
G37*
G36*
G01X27342500Y14665280D02*
X27272500D01*
G02Y14810720I0J72720D01*
G01X27342500D01*
G02Y14665280I0J-72720D01*
G37*
G36*
G01X26972500D02*
X26902500D01*
G02Y14810720I0J72720D01*
G01X26972500D01*
G02Y14665280I0J-72720D01*
G37*
G36*
G01X32334010Y14664280D02*
X32176490D01*
G02X32163780Y14676990I5J12715D01*
G01Y14834510D01*
G02X32176490Y14847220I12715J-5D01*
G01X32334010D01*
G02X32346720Y14834510I-5J-12715D01*
G01Y14676990D01*
G02X32334010Y14664280I-12715J5D01*
G37*
G36*
G01X32938370Y14632150D02*
G02X32897850Y14591630I31630J-72150D01*
G01X32898000Y14591980D01*
G02X32938020Y14632000I72000J-31980D01*
G01X32938370Y14632150D01*
G37*
G36*
G01X29462920Y13816200D02*
G02X29412080I-25420J-34950D01*
G01Y13816210D01*
G02X29462920I25420J-34960D01*
G01Y13816200D01*
G37*
G54D34*
X29437500Y15360950D03*
G54D31*
X31813750Y16867500D03*
X31343750Y16687500D03*
X34251250Y16430000D03*
X31657500Y15992500D03*
X30872250Y15801000D03*
X32845000Y15648750D03*
X34251250Y14211250D03*
G54D33*
X32081375Y15992500D03*
G54D30*
X36580000Y17130000D03*
Y13790000D03*
X26750000Y13780000D03*
G54D29*
X33776250Y17000000D03*
X30731250Y16343250D03*
X29969250D03*
X33732000Y14560000D03*
G54D32*
X36563750Y16317000D03*
Y16063000D03*
Y15809000D03*
X32255250Y15517750D03*
Y15263750D03*
Y15009750D03*
G54D28*
X33188750Y17130000D03*
X30872250Y15945800D03*
X29313750Y15801000D03*
X29437500Y15641000D03*
Y15481000D03*
Y15240900D03*
Y14003280D03*
%LPD*%
G75*
G36*
G01X27943430Y15174170D02*
X27932920Y15184680D01*
Y15612820D01*
X27943430Y15623330D01*
X28184070D01*
X28194580Y15612820D01*
Y15294470D01*
X28241900Y15247150D01*
G02X28234710Y15229810I-7187J-7180D01*
G01X28201330D01*
X28151400Y15279740D01*
Y15540990D01*
G03X28138680Y15553710I-12720J0D01*
G01X27988820D01*
G03X27976100Y15540990I0J-12720D01*
G01Y15256510D01*
G03X27988820Y15243790I12720J0D01*
G01X28115450D01*
X28167730Y15191510D01*
G02X28160540Y15174170I-7187J-7180D01*
G01X27943430D01*
G37*
G36*
G01X28578120Y14955420D02*
Y15072240D01*
G03X28565400Y15084960I-12720J0D01*
G01X28515890D01*
Y15123330D01*
X28668030D01*
X28918030Y15373330D01*
X28981080D01*
X28983330Y15375580D01*
X29593070D01*
G03X29600780Y15369850I24876J25419D01*
G02Y15352050I-4897J-8900D01*
G03X29593070Y15346320I17166J-31149D01*
G01X28962270D01*
X28946370Y15330420D01*
X28896970D01*
X28725830Y15159280D01*
Y14965930D01*
X28715320Y14955420D01*
X28578120D01*
G37*
G36*
G01X30019910Y15179490D02*
G03X29954360Y15171140I-31112J-17234D01*
G01X29953380Y15167330D01*
X29944360D01*
Y15185100D01*
G03X29931640Y15197820I-12720J0D01*
G01X29885960D01*
G03X29873240Y15185100I0J-12720D01*
G01Y15167330D01*
X29864220D01*
X29863240Y15171140D01*
G03X29854220Y15187130I-34438J-8887D01*
G01Y15263470D01*
X29857920Y15267170D01*
Y15438800D01*
G03X29797350Y15498900I-25420J34953D01*
G02X29780420Y15499520I-8260J5914D01*
G03X29767290Y15512110I-30362J-18522D01*
G02Y15529890I4918J8890D01*
G03X29774930Y15535580I-17232J31112D01*
G01X30109720D01*
X30132080Y15513220D01*
Y15242430D01*
X30123380Y15233730D01*
Y15187130D01*
G03X30117690Y15179490I25422J-24872D01*
G02X30099910I-8890J4918D01*
G03X30037690I-31110J-17235D01*
G02X30019910I-8890J4918D01*
G37*
G36*
G01X29774930Y15666420D02*
G03X29767290Y15672110I-24872J-25422D01*
G02Y15689890I4918J8890D01*
G03X29783710Y15709520I-17241J31104D01*
G02X29800790Y15713140I9619J-3281D01*
G03X29875500Y15746900I31714J29362D01*
G01X29875250Y15749300D01*
X29908800Y15782850D01*
X29943320Y15748330D01*
X30017630D01*
X30094220Y15824920D01*
Y15854870D01*
G03X30099910Y15862510I-25422J24872D01*
G02X30117690I8890J-4918D01*
G03X30179910I31110J17235D01*
G02X30197690I8890J-4918D01*
G03X30259910I31110J17235D01*
G02X30277690I8890J-4918D01*
G03X30283380Y15854870I31112J17232D01*
G01Y15685580D01*
X30264220Y15666420D01*
X29774930D01*
G37*
G36*
G01X32005930Y15674170D02*
X31932920Y15747180D01*
Y16102630D01*
X31892630Y16142920D01*
X30384550D01*
G02X30376780Y16159630I-2J10161D01*
G03X30308800Y16212920I-33030J27870D01*
G01X30283380D01*
Y16036730D01*
G03X30277690Y16029090I25422J-24872D01*
G02X30259910I-8890J4918D01*
G03X30254220Y16036730I-31112J-17232D01*
G01Y16285670D01*
X30286380Y16317830D01*
X30656680D01*
G03X30756670Y16417820I74570J25420D01*
G01Y16655630D01*
X30782240D01*
G03X30794960Y16668350I0J12720D01*
G01Y16818210D01*
G03X30782240Y16830930I-12720J0D01*
G01X30497760D01*
G03X30485040Y16818210I0J-12720D01*
G01Y16668350D01*
G03X30497760Y16655630I12720J0D01*
G01X30614580D01*
Y16604830D01*
X30705830D01*
Y16417820D01*
G03X30656680Y16368670I25420J-74570D01*
G01X30265320D01*
X30203380Y16306730D01*
Y16036730D01*
G03X30197690Y16029090I25422J-24872D01*
G02X30179910I-8890J4918D01*
G03X30174220Y16036730I-31112J-17232D01*
G01Y16330080D01*
X30133930Y16370370D01*
X30064580D01*
X30062880Y16368670D01*
X30043820D01*
G03X29994670Y16417820I-74570J-25420D01*
G01Y16614830D01*
X30005420D01*
Y16665630D01*
X30122240D01*
G03X30134960Y16678350I0J12720D01*
G01Y16828210D01*
G03X30122240Y16840930I-12720J0D01*
G01X30005420D01*
Y17092350D01*
X30122240D01*
G03X30134960Y17105070I0J12720D01*
G01Y17154580D01*
X30434240D01*
Y17144580D01*
X30485040D01*
Y17095070D01*
G03X30497760Y17082350I12720J0D01*
G01X30614580D01*
Y16904470D01*
X30676970Y16842080D01*
X31069850D01*
Y16725260D01*
G03X31082570Y16712540I12720J0D01*
G01X31132080D01*
Y16414660D01*
X31221290Y16325450D01*
Y16198820D01*
G03X31234010Y16186100I12720J0D01*
G01X31518490D01*
G03X31531210Y16198820I0J12720D01*
G01Y16348680D01*
G03X31518490Y16361400I-12720J0D01*
G01X31257240D01*
X31182920Y16435720D01*
Y16594100D01*
G02X31200260Y16601290I10160J3D01*
G01X31240720Y16560830D01*
X31955130D01*
X32026670Y16632370D01*
Y16712540D01*
X32076180D01*
G03X32088900Y16725260I0J12720D01*
G01Y16842080D01*
X32184070D01*
X32229830Y16796320D01*
Y15859700D01*
X32226350Y15858550D01*
G03X32208580Y15693070I28898J-86797D01*
G02X32203400Y15674170I-5179J-8740D01*
G01X32005930D01*
G37*
G36*
G01X29964380Y15799170D02*
X29934220Y15829330D01*
Y15854870D01*
G03X29943240Y15870860I-25418J24877D01*
G01X29944220Y15874670D01*
X29953240D01*
Y15856900D01*
G03X29965960Y15844180I12720J0D01*
G01X30011640D01*
G03X30024360Y15856900I0J12720D01*
G01Y15874670D01*
X30033380D01*
X30034360Y15870860D01*
G03X30042110Y15856240I34437J8891D01*
G01X30043380Y15854800D01*
Y15845980D01*
X29996570Y15799170D01*
X29964380D01*
G37*
G36*
G01X30099910Y16029090D02*
G03X30094220Y16036730I-31112J-17232D01*
G01Y16103830D01*
X29985130Y16212920D01*
X29879680D01*
X29869170Y16223430D01*
Y16578880D01*
X29828880Y16619170D01*
X29692180D01*
X29650420Y16660930D01*
Y16849580D01*
X29817810D01*
G02X29826670Y16834440I5J-10160D01*
G03X29825040Y16828210I11091J-6230D01*
G01Y16678350D01*
G03X29837760Y16665630I12720J0D01*
G01X29943830D01*
Y16417820D01*
G03X30043820Y16317830I25420J-74570D01*
G01X30083940D01*
X30085640Y16319530D01*
X30112870D01*
X30123380Y16309020D01*
Y16036730D01*
G03X30117690Y16029090I25422J-24872D01*
G02X30099910I-8890J4918D01*
G37*
G36*
G01X30920180Y15321550D02*
G02X30902840Y15314360I-10160J-3D01*
G01X30870880Y15346320D01*
X30624530D01*
G03X30616820Y15352050I-24876J-25419D01*
G02Y15369850I4897J8900D01*
G03X30624530Y15375580I-17166J31149D01*
G01X30894720D01*
X30920180Y15350120D01*
Y15321550D01*
G37*
G36*
G01X33368410Y15777240D02*
G03X33302860Y15768890I-31112J-17234D01*
G01X33301880Y15765080D01*
X33292860D01*
Y15782850D01*
G03X33280140Y15795570I-12720J0D01*
G01X33234460D01*
G03X33223590Y15789460I-3J-12719D01*
G01X33222100Y15787020D01*
X33214170D01*
Y15801300D01*
G03X33226190Y15857840I-25421J34952D01*
G02X33234990Y15873080I8799J5080D01*
G01X33365970D01*
X33425820Y15813230D01*
X33593700D01*
G03X33621400Y15796040I34957J25416D01*
G02X33628060Y15780240I-1696J-10018D01*
G03X33626190Y15777240I29208J-20289D01*
G02X33608410I-8890J4918D01*
G03X33546190I-31110J-17235D01*
G02X33528410I-8890J4918D01*
G03X33466190I-31110J-17235D01*
G02X33448410I-8890J4918D01*
G03X33386190I-31110J-17235D01*
G02X33368410I-8890J4918D01*
G37*
G36*
G01X32889870Y15797170D02*
G02X32881330Y15812830I-1J10158D01*
G03X32810050Y15861670I-36323J23424D01*
G01X32786930D01*
X32776670Y15871930D01*
Y16258910D01*
G02X32791950Y16267680I10159J-5D01*
G03X32848700Y16279580I21797J37320D01*
G01X32902280D01*
X32916030Y16293330D01*
X32941570D01*
G03X32949210Y16287640I24872J25422D01*
G02Y16269860I-4918J-8890D01*
G03X32941570Y16264170I17232J-31112D01*
G01X32894970D01*
X32850830Y16220030D01*
Y16027450D01*
G03X32901670I25420J-34950D01*
G01Y16198970D01*
X32916030Y16213330D01*
X32941570D01*
G03X32949210Y16207640I24872J25422D01*
G02Y16189860I-4918J-8890D01*
G03Y16127640I17235J-31110D01*
G02Y16109860I-4918J-8890D01*
G03Y16047640I17235J-31110D01*
G02Y16029860I-4918J-8890D01*
G03X32949280Y15967600I17235J-31111D01*
G02Y15949800I-4897J-8900D01*
G03X32949210Y15887540I17165J-31149D01*
G02Y15869760I-4918J-8890D01*
G03X32940530Y15814290I17234J-31111D01*
G02X32933130Y15797170I-7400J-6961D01*
G01X32889870D01*
G37*
G36*
G01X33123500Y15944070D02*
X33122060Y15945340D01*
G03X33115720Y15949800I-23511J-26685D01*
G02Y15967600I4897J8900D01*
G03X33115790Y16029860I-17165J31149D01*
G02Y16047640I4918J8890D01*
G03Y16109860I-17235J31110D01*
G02Y16127640I4918J8890D01*
G03Y16189860I-17235J31110D01*
G02Y16207640I4918J8890D01*
G03Y16269860I-17235J31110D01*
G02Y16287640I4918J8890D01*
G03X33107440Y16353190I-17234J31112D01*
G01X33103630Y16354170D01*
Y16363180D01*
X33121400D01*
G03X33132880Y16370430I0J12714D01*
G01X33134260Y16373330D01*
X33459470D01*
X33507080Y16325720D01*
Y16027450D01*
G03X33502370Y15961510I25420J-34954D01*
G02X33495290Y15944070I-7084J-7281D01*
G01X33460630D01*
X33442680Y15962020D01*
X33145620D01*
X33127670Y15944070D01*
X33123500D01*
G37*
G36*
G01X33830690Y15105260D02*
X33762720Y15173230D01*
Y15603020D01*
G03X33772860Y15627900I-25424J24868D01*
G01Y15760000D01*
G03X33706190Y15777240I-35563J3D01*
G02X33688410I-8890J4918D01*
G03X33666670Y15794310I-31107J-17238D01*
G02X33661600Y15810690I2678J9804D01*
G03X33593700Y15864070I-32951J27961D01*
G01X33446880D01*
X33408440Y15902510D01*
G02X33412030Y15911180I3593J3590D01*
G01X33421620D01*
X33439570Y15893230D01*
X33630930D01*
X33682920Y15945220D01*
Y15970620D01*
X33765630Y16053330D01*
X33780340D01*
X33781720Y16050430D01*
G03X33793200Y16043180I11480J5464D01*
G01X33810970D01*
Y16034170D01*
X33807160Y16033190D01*
G03X33798880Y15967600I8883J-34439D01*
G02Y15949800I-4897J-8900D01*
G03X33798810Y15887540I17165J-31149D01*
G02Y15869760I-4918J-8890D01*
G03X33816040Y15803080I17232J-31113D01*
G01X33948160D01*
G03X33973030Y15813230I-9J35567D01*
G01X34075220D01*
X34093980Y15794470D01*
Y15238820D01*
X34174220Y15158580D01*
X34288300D01*
X34289450Y15155100D01*
G03X34308730Y15122270I86799J28898D01*
G02X34301230Y15105260I-7499J-6852D01*
G01X33830690D01*
G37*
G36*
G01X34132080Y15852800D02*
G02X34114740Y15845610I-10160J-3D01*
G01X34096280Y15864070D01*
X33973030D01*
G03X33965390Y15869760I-24872J-25422D01*
G02Y15887540I4918J8890D01*
G03X33973030Y15893230I-17232J31112D01*
G01X34121570D01*
X34132080Y15882720D01*
Y15852800D01*
G37*
G36*
G01X26496000Y13526000D02*
Y14034000D01*
X27004000D01*
Y13526000D01*
X26496000D01*
G37*
G36*
G01X26464750Y16871000D02*
Y17379000D01*
X26972750D01*
Y16871000D01*
X26464750D01*
G37*
G36*
G01X36326000Y13536000D02*
Y14044000D01*
X36834000D01*
Y13536000D01*
X36326000D01*
G37*
G36*
G01Y16876000D02*
Y17384000D01*
X36834000D01*
Y16876000D01*
X36326000D01*
G37*
G54D10*
X26750000Y13780000D03*
D03*
X26718750Y17125000D03*
D03*
X36580000Y13790000D03*
D03*
Y17130000D03*
D03*
G54D20*
X29828800Y15096200D03*
X29988800D03*
X30068800D03*
X30148800D03*
Y15945800D03*
X30068800D03*
X29908800D03*
X29828800D03*
X30228800Y15096200D03*
X30308800D03*
X30388800D03*
Y15945800D03*
X30308800D03*
X30228800D03*
X33177300Y15693950D03*
X33257300Y16543550D03*
X33177300D03*
X33337300Y15693950D03*
X33417300D03*
X33497300D03*
X33577300D03*
X33657300D03*
X33737300D03*
Y16543550D03*
X33657300D03*
X33577300D03*
X33497300D03*
X33417300D03*
G54D11*
X26937500Y14738000D03*
D03*
Y15762000D03*
D03*
X27307500Y14738000D03*
D03*
Y15762000D03*
D03*
G54D12*
X26843750Y16402250D03*
D03*
X27593750D03*
D03*
X28287000Y15801000D03*
D03*
X29969250Y16343250D03*
D03*
X30731250D03*
D03*
X32970000Y14560000D03*
D03*
X33732000D03*
D03*
X33776250Y17000000D03*
D03*
G54D21*
X29908800Y15096200D03*
X29988800Y15945800D03*
X33257300Y15693950D03*
X33337300Y16543550D03*
G54D13*
X26843750Y16656250D03*
D03*
X27593750D03*
D03*
X28287000Y16055000D03*
D03*
X34093750Y17000000D03*
D03*
G54D22*
X29684000Y15801000D03*
X30533600Y15481000D03*
X33032500Y16398750D03*
X33882100Y16078750D03*
G54D23*
X32255250Y14755750D03*
D03*
X34376250Y14930000D03*
D03*
X36563750Y15555000D03*
D03*
G54D14*
X27307500Y15478000D03*
Y15022000D03*
G54D24*
X32255250Y15517750D03*
D03*
Y15263750D03*
D03*
Y15009750D03*
D03*
Y15771750D03*
D03*
X34376250Y15692000D03*
D03*
Y15438000D03*
D03*
Y15184000D03*
D03*
Y15946000D03*
D03*
X36563750Y16317000D03*
D03*
Y16063000D03*
D03*
Y15809000D03*
D03*
Y16571000D03*
D03*
G54D15*
X27307500Y15380000D03*
Y15120000D03*
Y15315000D03*
Y15185000D03*
Y15250000D03*
G54D25*
G01X27129450Y16529250D02*
G02I-285700J0D01*
G01X27879450D02*
G02I-285700J0D01*
G01X28572700Y15928000D02*
G02I-285700J0D01*
G01X30921750Y16089250D02*
X29778750D01*
G01D02*
Y16597250D01*
G01D02*
X30921750D01*
G01D02*
Y16089250D01*
G01X32128250Y14616050D02*
Y15911450D01*
G01X32382250Y14616050D02*
X32128250D01*
G01X32382250Y14755750D02*
Y14616050D01*
G01Y15009750D02*
Y14755750D01*
G01Y15263750D02*
Y15009750D01*
G01Y15517750D02*
Y15263750D01*
G01Y15771750D02*
Y15517750D01*
G01X32128250Y15911450D02*
X32382250D01*
G01D02*
Y15771750D01*
G01X33922500Y14306000D02*
X32779500D01*
G01D02*
Y14814000D01*
G01D02*
X33922500D01*
G01D02*
Y14306000D01*
G01X34252450Y17000000D02*
G02X33935050Y16682500I-317400J-100D01*
G02Y17317500I0J317500D01*
G02X34252450Y17000000I0J-317400D01*
G01X34249250Y14790300D02*
Y16085700D01*
G01X34503250Y14790300D02*
X34249250D01*
G01X34503250Y14930000D02*
Y14790300D01*
G01Y15184000D02*
Y14930000D01*
G01Y15438000D02*
Y15184000D01*
G01Y15692000D02*
Y15438000D01*
G01X34249250Y16085700D02*
X34503250D01*
G01Y15946000D02*
Y15692000D01*
G01Y16085700D02*
Y15946000D01*
G01X36436750Y15415300D02*
Y16710700D01*
G01X36690750Y15415300D02*
X36436750D01*
G01X36690750Y15555000D02*
Y15415300D01*
G01Y15809000D02*
Y15555000D01*
G01Y16063000D02*
Y15809000D01*
G01Y16317000D02*
Y16063000D01*
G01Y16571000D02*
Y16317000D01*
G01X36436750Y16710700D02*
X36690750D01*
G01D02*
Y16571000D01*
G54D16*
X28063750Y13930000D03*
X28490470D03*
X28063750Y14930000D03*
X28490470D03*
X28032500Y14461250D03*
X28459220D03*
X28063750Y15398750D03*
X28490470D03*
X31251250Y13836250D03*
X31677970D03*
X31251250Y14898750D03*
X31677970D03*
X31251250Y14367500D03*
X31677970D03*
X31251250Y15461250D03*
X31677970D03*
X31157500Y16867500D03*
X31584220D03*
X32001250D03*
X32427970D03*
X32990000Y17130000D03*
X33416720D03*
X35313750Y14586250D03*
Y15711250D03*
Y15180000D03*
X35345000Y16242500D03*
X35220000Y17086250D03*
X35740470Y14586250D03*
Y15711250D03*
Y15180000D03*
X35771720Y16242500D03*
X35646720Y17086250D03*
G54D26*
G01X26843750Y16402250D02*
X26940310D01*
G01X26747190D02*
X26843750D01*
G01D02*
Y16498810D01*
G01Y16305690D02*
Y16402250D01*
G01D02*
X27593750D01*
G01X26843750Y16656250D02*
X27593750D01*
G01X27950720Y13930000D02*
X27926970Y13906250D01*
X27812500D01*
X27687500Y14031250D01*
Y15156250D01*
X27658750Y15185000D01*
G01X28032500Y14461250D02*
X27820000D01*
X27750000Y14531250D01*
Y15218750D01*
X27718750Y15250000D01*
X27307500D01*
G01X27593750Y15937500D02*
Y15468750D01*
X27505000Y15380000D01*
X27307500D01*
G01X27658750Y15185000D02*
X27307500D01*
G01X28063750Y14930000D02*
X27950720D01*
X27943220Y14937500D01*
X27875000D01*
X27812500Y15000000D01*
Y15281250D01*
X27778750Y15315000D01*
X27307500D01*
G01X29684000Y15401000D02*
X28972800D01*
X28970550Y15398750D01*
X28907500D01*
X28657500Y15148750D01*
X28407500D01*
X28345000Y15211250D01*
Y15217100D01*
X28319600Y15242500D01*
X28282500D01*
X28220000Y15305000D01*
Y15623350D01*
X28194600Y15648750D01*
X27932900D01*
X27907500Y15623350D01*
Y15174150D01*
X27932900Y15148750D01*
X28288350D01*
X28313750Y15123350D01*
Y14242500D01*
X28376250Y14180000D01*
X29001250D01*
X29063750Y14242500D01*
Y14430000D01*
G01X27593750Y15937500D02*
X27718750Y15812500D01*
X28171340D01*
X28182840Y15801000D01*
X28287000D01*
G01X27593750Y16402250D02*
Y15937500D01*
G01Y16402250D02*
X27690310D01*
G01X27497190D02*
X27593750D01*
G01D02*
Y16498810D01*
G01Y16305690D02*
Y16402250D01*
G01X28040000Y17000000D02*
X27718750D01*
X27593750Y16875000D01*
Y16656250D01*
G01X28063750Y13930000D02*
X28169180D01*
G01X28063750D02*
Y14102740D01*
G01Y13757260D02*
Y13930000D01*
G01X29437500Y13781250D02*
X29312500Y13656250D01*
X28583880D01*
X28490470Y13749660D01*
Y13930000D01*
G01X28063750D02*
X27950720D01*
G01X29684000Y15240900D02*
X28972800D01*
X28911900Y15180000D01*
X28907500D01*
X28845000Y15117500D01*
Y14555000D01*
X28751250Y14461250D01*
X28459220D01*
G01X28490470Y15398750D02*
X28712750D01*
X28795000Y15481000D01*
X29684000D01*
G01Y15320900D02*
X28972800D01*
X28956900Y15305000D01*
X28907500D01*
X28751250Y15148750D01*
Y14955400D01*
X28725850Y14930000D01*
X28490470D01*
G01D02*
Y15110340D01*
X28490170Y15110640D01*
X28391720D01*
X28297970Y15204390D01*
X28190800D01*
X28063750Y15331440D01*
Y15398750D01*
G01X28287000Y15801000D02*
X28383560D01*
G01X28190440D02*
X28287000D01*
G01D02*
Y15897560D01*
G01Y15704440D02*
Y15801000D01*
G01D02*
X29466000D01*
X29563750Y15898750D01*
Y16029600D01*
X29594250Y16060100D01*
X29848790D01*
X29853930Y16054960D01*
X29865690D01*
X29908800Y16011850D01*
Y15945800D01*
G01X28040000Y17000000D02*
X27938750Y16898750D01*
Y16055000D01*
X28287000D01*
G01D02*
X29282500D01*
X29313750Y16023750D01*
G01X28040000Y17000000D02*
X28052970Y17012970D01*
X28282500D01*
G01Y16586250D02*
X29117190D01*
X29186160Y16517280D01*
X29366500D01*
G01X29063750Y14003280D02*
X29699530D01*
X29813750Y14117500D01*
Y14192150D01*
X29828800Y14207200D01*
Y15028520D01*
G01X29437500Y13781250D02*
Y16005850D01*
X29412100Y16031250D01*
X29321250D01*
X29313750Y16023750D01*
G01Y15711250D02*
X29384000Y15641000D01*
X29684000D01*
G01X29313750Y16023750D02*
Y15711250D01*
G01X29366500Y16944000D02*
Y17180000D01*
X29980000D01*
G01X29988800Y15945800D02*
Y16073300D01*
X29944600Y16117500D01*
X29776650D01*
X29720000Y16174150D01*
Y16461250D01*
X29663970Y16517280D01*
X29366500D01*
G01X29828800Y15028520D02*
X29896070Y14961250D01*
X30148140D01*
X30173930Y14987040D01*
X30185690D01*
X30228800Y15030150D01*
Y15096200D01*
G01X29828800D02*
Y15274000D01*
X29832500Y15277700D01*
Y15473750D01*
G01X30148800Y15096200D02*
Y15223200D01*
X30157500Y15231900D01*
Y15523750D01*
X30120250Y15561000D01*
X29684000D01*
G01X29828800Y15096200D02*
Y15028520D01*
G01X29684000Y15641000D02*
Y15561000D01*
G01X30308800Y15945800D02*
Y15675050D01*
X30274750Y15641000D01*
X29684000D01*
G01X29832500Y15742500D02*
Y15473750D01*
G01X30068800Y15945800D02*
Y16093300D01*
X29974600Y16187500D01*
X29869150D01*
X29843750Y16212900D01*
Y16568350D01*
X29818350Y16593750D01*
X29681650D01*
X29625000Y16650400D01*
Y16875000D01*
X29980000D01*
Y17180000D01*
G01X30068800Y15945800D02*
Y15835450D01*
X30007100Y15773750D01*
X29953850D01*
X29908800Y15818800D01*
G01Y15945800D02*
Y15818800D01*
G01D02*
X29832500Y15742500D01*
G01X29980000Y16753280D02*
Y16640250D01*
X29969250D01*
Y16343250D01*
G01X30148800Y15945800D02*
Y16319550D01*
X30123400Y16344950D01*
X30075110D01*
X30073410Y16343250D01*
X29969250D01*
G01X29616700Y15870300D02*
X29759400D01*
G01X30640000Y17170000D02*
X30459660D01*
Y17180000D01*
X29980000D01*
G01X31251250Y13836250D02*
X31026650D01*
X30907500Y13955400D01*
Y15273750D01*
X30860350Y15320900D01*
X30533600D01*
G01Y15401000D02*
X30905250D01*
X30945600Y15360650D01*
Y14423150D01*
X31001250Y14367500D01*
X31251250D01*
G01X30228800Y15096200D02*
Y15223200D01*
X30248100Y15242500D01*
X30282500D01*
X30284100Y15240900D01*
X30533600D01*
G01X31251250Y14898750D02*
X31089150D01*
X31032500Y14955400D01*
Y15398750D01*
X30950250Y15481000D01*
X30533600D01*
G01Y15561000D02*
X31038470D01*
X31138220Y15461250D01*
X31251250D01*
G01X30343750Y16187500D02*
Y16443350D01*
X30369150Y16468750D01*
X31343750D01*
Y16687500D01*
G01X30308800Y16072800D02*
Y15945800D01*
G01X30343750Y16187500D02*
X30308800D01*
Y16072800D01*
G01X30640000Y16743280D02*
Y16630250D01*
X30731250D01*
Y16343250D01*
G01X32813750Y16305000D02*
Y16148750D01*
X32782500Y16117500D01*
X30938750D01*
X30872250Y16051000D01*
Y15801000D01*
G01X31657500Y15992500D02*
X31001250D01*
X30954550Y15945800D01*
X30388800D01*
G01X30731250Y16343250D02*
X30275850D01*
X30228800Y16296200D01*
Y15945800D01*
G01X34251250Y14211250D02*
X32720000D01*
X32626250Y14305000D01*
Y15623350D01*
X32600850Y15648750D01*
X31995400D01*
X31907500Y15736650D01*
Y16092100D01*
X31882100Y16117500D01*
X30353500D01*
X30308800Y16072800D01*
G01X30533600Y15801000D02*
X30872250D01*
G01X30640000Y17170000D02*
Y16915000D01*
X30687500Y16867500D01*
X31157500D01*
G01X32255250Y14755750D02*
Y14638890D01*
X32282500Y14611640D01*
Y13930000D01*
X32188750Y13836250D01*
X31677970D01*
G01X32255250Y15009750D02*
X32106400D01*
X32032500Y14935850D01*
Y14392900D01*
X32007100Y14367500D01*
X31677970D01*
G01X32255250Y15263750D02*
X32138390D01*
X32124640Y15250000D01*
X31964150D01*
X31938750Y15224600D01*
Y14924150D01*
X31913350Y14898750D01*
X31677970D01*
G01Y15461250D02*
X32081890D01*
X32138390Y15517750D01*
X32255250D01*
G01X31677970Y15461250D02*
Y15821630D01*
X31652570Y15847030D01*
X31376250D01*
G01X31157500Y16680000D02*
Y16425190D01*
X31308940Y16273750D01*
X31376250D01*
G01X31657500Y15992500D02*
X32876250D01*
G01X31157500Y16867500D02*
Y16680000D01*
G01D02*
X31251250Y16586250D01*
X31944600D01*
X32001250Y16642900D01*
Y16867500D01*
G01X31343750Y16687500D02*
X31900920D01*
Y17130000D01*
X32990000D01*
G01X31584220Y16867500D02*
X31813750D01*
G01X32255250Y15662490D02*
Y15771750D01*
G01D02*
X32999250D01*
X33032500Y15805000D01*
Y15838650D01*
G01X32255250Y15771750D02*
Y16806850D01*
X32194600Y16867500D01*
X32001250D01*
G01X32255250Y15771750D02*
X32364510D01*
G01X32145990D02*
X32255250D01*
G01D02*
Y15881010D01*
G01X31813750Y16867500D02*
Y17282510D01*
X31874990Y17343750D01*
X33093750D01*
X33188750Y17248750D01*
Y15836250D01*
G01X32845000D02*
X32776400D01*
X32751250Y15861400D01*
Y16842100D01*
X32725850Y16867500D01*
X32427970D01*
G01X33188750Y15367500D02*
Y14586250D01*
X33215000Y14560000D01*
X33732000D01*
G01X32845000Y15549150D02*
Y14685000D01*
X32970000Y14560000D01*
G01X33188750Y15586250D02*
Y15682500D01*
X33177300Y15693950D01*
G01X33188750Y15367500D02*
Y15586250D01*
G01X32845000Y15648750D02*
Y15549150D01*
G01X33257300Y15693950D02*
Y15470450D01*
X33231900Y15445050D01*
X32949100D01*
X32845000Y15549150D01*
G01Y15836250D02*
Y15648750D01*
G01X33032500Y15838650D02*
X33112090D01*
X33171940Y15898500D01*
X33376500D01*
X33436350Y15838650D01*
X33628650D01*
G01X33032500Y16398750D02*
X32875000D01*
Y16750000D01*
X33125000D01*
Y17130000D01*
X33416720D01*
G01X33882100Y16078750D02*
X33755100D01*
X33657500Y15981150D01*
Y15955750D01*
X33620400Y15918650D01*
X33450100D01*
X33432150Y15936600D01*
X33156150D01*
X33138200Y15918650D01*
X33032500D01*
G01X33532500Y15992500D02*
Y16336250D01*
X33470000Y16398750D01*
X33032500D01*
G01X33188750Y15836250D02*
Y15705400D01*
X33177300Y15693950D01*
G01X32876250Y15992500D02*
Y16209500D01*
X32905500Y16238750D01*
X33032500D01*
G01X32813750Y16305000D02*
X32891750D01*
X32905500Y16318750D01*
X33032500D01*
G01X32965200Y16468050D02*
X33107900D01*
G01X35313750Y14586250D02*
X35095010D01*
X35032500Y14648760D01*
Y15042180D01*
X34994840Y15079840D01*
X33820160D01*
X33737300Y15162700D01*
Y15693950D01*
G01X33532500Y15992500D02*
Y15055000D01*
X33657500Y14930000D01*
G01D02*
X34376250D01*
G01Y15946000D02*
Y16180000D01*
X34313750Y16242500D01*
X34241450D01*
X34237700Y16238750D01*
X33882100D01*
G01X33628650Y16115100D02*
Y16213650D01*
X33657500Y16242500D01*
X33700550D01*
X33704300Y16238750D01*
X33882100D01*
G01Y16318750D02*
X34012100D01*
X34093750Y16400400D01*
Y16818350D01*
X34068350Y16843750D01*
X33838750D01*
X33776250Y16906250D01*
Y17000000D01*
G01X34251250Y16148750D02*
X34181250Y16078750D01*
X33882100D01*
G01X34376250Y15692000D02*
Y15674150D01*
X34350850Y15648750D01*
X34245400D01*
X34220000Y15674150D01*
Y15961250D01*
X34182500Y15998750D01*
X33882100D01*
G01X34376250Y15438000D02*
X34206150D01*
X34157500Y15486650D01*
Y15893250D01*
X34132100Y15918650D01*
X33882100D01*
G01Y15838650D02*
X34085750D01*
X34119400Y15805000D01*
Y15249350D01*
X34184750Y15184000D01*
X34376250D01*
G01X33628650Y15838650D02*
Y16115100D01*
G01X35740470Y14586250D02*
Y14262970D01*
X35626250Y14148750D01*
X34532500D01*
X34376250Y14305000D01*
Y14930000D01*
G01X34251250Y14211250D02*
Y16148750D01*
G01X35313750Y15711250D02*
X35119160D01*
X35062500Y15654590D01*
Y15463400D01*
X35037100Y15438000D01*
X34376250D01*
G01Y15184000D02*
X35196720D01*
X35200720Y15180000D01*
X35313750D01*
G01X36563750Y16571000D02*
X36446890D01*
X36431640Y16586250D01*
X34907500D01*
X34782500Y16461250D01*
Y15971400D01*
X34757100Y15946000D01*
X34376250D01*
G01D02*
X34485510D01*
G01X34376250D02*
Y16055260D01*
G01Y15836740D02*
Y15946000D01*
G01Y15692000D02*
X34785740D01*
X34843750Y15750010D01*
Y16187510D01*
X34898740Y16242500D01*
X35345000D01*
G01X34251250Y16148750D02*
Y16430000D01*
G01X35646720Y17086250D02*
Y16767900D01*
X35621320Y16742500D01*
X34376250D01*
X34251250Y16617500D01*
Y16430000D01*
G01X35220000Y17086250D02*
X35049150D01*
X35000000Y17037100D01*
Y17025400D01*
X34974600Y17000000D01*
X34093750D01*
G01X36563750Y15555000D02*
X36532500Y15523750D01*
X36432900D01*
X36407500Y15498350D01*
Y14711250D01*
X36282500Y14586250D01*
X35740470D01*
G01X36563750Y15809000D02*
X36371510D01*
X36282500Y15719990D01*
Y15205400D01*
X36257100Y15180000D01*
X35740470D01*
G01X35771720Y16242500D02*
X35884750D01*
X35959250Y16317000D01*
X36563750D01*
G01Y16063000D02*
X35772220D01*
X35740470Y16031250D01*
Y15711250D01*
G01X36563750Y16571000D02*
X36673010D01*
G01X36454490D02*
X36563750D01*
G01D02*
Y16680260D01*
G01Y16461740D02*
Y16571000D01*
G54D17*
X28282500Y16586250D03*
Y17012970D03*
X29063750Y14003280D03*
Y14430000D03*
X29366500Y16944000D03*
Y16517280D03*
X29980000Y17180000D03*
Y16753280D03*
X30640000Y17170000D03*
Y16743280D03*
X31376250Y16273750D03*
Y15847030D03*
G54D27*
G01X27897880Y14258050D02*
Y14664450D01*
G01D02*
X28593840D01*
G01Y14258050D02*
X27897880D01*
G01X27929130Y13726800D02*
Y14133200D01*
G01D02*
X28625090D01*
G01D02*
Y13726800D01*
G01D02*
X27929130D01*
G01Y14726800D02*
Y15133200D01*
G01X28625090D02*
Y14726800D01*
G01D02*
X27929130D01*
G01X28593840Y14664450D02*
Y14258050D01*
G01X27929130Y15195550D02*
Y15601950D01*
G01D02*
X28625090D01*
G01D02*
Y15195550D01*
G01D02*
X27929130D01*
G01Y15133200D02*
X28625090D01*
G01X28485700Y16451630D02*
X28079300D01*
G01D02*
Y17147590D01*
G01D02*
X28485700D01*
G01D02*
Y16451630D01*
G01X29266950Y14564620D02*
Y13868660D01*
G01D02*
X28860550D01*
G01D02*
Y14564620D01*
G01D02*
X29266950D01*
G01X29569700Y16382660D02*
X29163300D01*
G01D02*
Y17078620D01*
G01D02*
X29569700D01*
G01D02*
Y16382660D01*
G01X30183200Y17314620D02*
Y16618660D01*
G01D02*
X29776800D01*
G01D02*
Y17314620D01*
G01D02*
X30183200D01*
G01X30843200Y17304620D02*
Y16608660D01*
G01D02*
X30436800D01*
G01D02*
Y17304620D01*
G01D02*
X30843200D01*
G01X31116630Y13633050D02*
Y14039450D01*
G01D02*
X31812590D01*
G01Y13633050D02*
X31116630D01*
G01Y14695550D02*
Y15101950D01*
G01X31812590Y14695550D02*
X31116630D01*
G01Y14164300D02*
Y14570700D01*
G01D02*
X31812590D01*
G01Y14164300D02*
X31116630D01*
G01Y15258050D02*
Y15664450D01*
G01D02*
X31812590D01*
G01Y15258050D02*
X31116630D01*
G01Y15101950D02*
X31812590D01*
G01X31173050Y16408370D02*
X31579450D01*
G01D02*
Y15712410D01*
G01D02*
X31173050D01*
G01D02*
Y16408370D01*
G01X31022880Y16664300D02*
Y17070700D01*
G01D02*
X31718840D01*
G01D02*
Y16664300D01*
G01D02*
X31022880D01*
G01X31812590Y14039450D02*
Y13633050D01*
G01Y15101950D02*
Y14695550D01*
G01Y14570700D02*
Y14164300D01*
G01Y15664450D02*
Y15258050D01*
G01X31866630Y16664300D02*
Y17070700D01*
G01D02*
X32562590D01*
G01Y16664300D02*
X31866630D01*
G01X32855380Y16926800D02*
Y17333200D01*
G01X33551340Y16926800D02*
X32855380D01*
G01X32562590Y17070700D02*
Y16664300D01*
G01X32855380Y17333200D02*
X33551340D01*
G01D02*
Y16926800D01*
G01X35179130Y14383050D02*
Y14789450D01*
G01D02*
X35875090D01*
G01Y14383050D02*
X35179130D01*
G01Y15508050D02*
Y15914450D01*
G01X35875090Y15508050D02*
X35179130D01*
G01Y14976800D02*
Y15383200D01*
G01D02*
X35875090D01*
G01Y14976800D02*
X35179130D01*
G01X35210380Y16039300D02*
Y16445700D01*
G01X35906340Y16039300D02*
X35210380D01*
G01X35179130Y15914450D02*
X35875090D01*
G01X35085380Y16883050D02*
Y17289450D01*
G01X35781340Y16883050D02*
X35085380D01*
G01X35210380Y16445700D02*
X35906340D01*
G01X35085380Y17289450D02*
X35781340D01*
G01X35875090Y14789450D02*
Y14383050D01*
G01Y15914450D02*
Y15508050D01*
G01Y15383200D02*
Y14976800D01*
G01X35906340Y16445700D02*
Y16039300D01*
G01X35781340Y17289450D02*
Y16883050D01*
G54D18*
X29437500Y13781250D03*
D03*
X29313750Y15711250D03*
D03*
Y16023750D03*
D03*
X29832500Y15473750D03*
D03*
Y15742500D03*
D03*
X30343750Y16187500D03*
D03*
X30872250Y15801000D03*
D03*
X31657500Y15992500D03*
D03*
X31343750Y16687500D03*
D03*
X31813750Y16867500D03*
D03*
X33188750Y15586250D03*
D03*
Y15367500D03*
D03*
X32845000Y15648750D03*
D03*
X33188750Y15836250D03*
D03*
X32845000D03*
D03*
X32876250Y15992500D03*
D03*
X32813750Y16305000D03*
D03*
X33657500Y14930000D03*
D03*
X33628650Y15838650D03*
D03*
Y16115100D03*
D03*
X33532500Y15992500D03*
D03*
X34251250Y14211250D03*
D03*
Y16148750D03*
D03*
Y16430000D03*
D03*
G54D19*
X29684000Y15641000D03*
Y15561000D03*
Y15481000D03*
Y15401000D03*
Y15320900D03*
Y15240900D03*
Y15721000D03*
X30533600Y15240900D03*
Y15320900D03*
Y15401000D03*
Y15561000D03*
Y15641000D03*
Y15721000D03*
Y15801000D03*
X33032500Y16318750D03*
Y16238750D03*
Y16158750D03*
Y16078750D03*
Y15998750D03*
Y15918650D03*
Y15838650D03*
X33882100D03*
Y15918650D03*
Y15998750D03*
Y16158750D03*
Y16238750D03*
Y16318750D03*
Y16398750D03*
M02*
