G04 ================== begin FILE IDENTIFICATION RECORD ==================*
G04 Layout Name:  C:/USERS/USER/DESKTOP/WORKSPACE/AVRUSB500/allegro/AVRUSB500.brd*
G04 Film Name:    DrillDraw*
G04 File Format:  Gerber RS274X*
G04 File Origin:  Cadence Allegro 17.2-P019*
G04 Origin Date:  Mon Jul 29 16:58:26 2019*
G04 *
G04 Layer:  MANUFACTURING/NCLEGEND-1-2*
G04 Layer:  BOARD GEOMETRY/OUTLINE*
G04 Layer:  BOARD GEOMETRY/DIMENSION*
G04 Layer:  BOARD GEOMETRY/DESIGN_OUTLINE*
G04 *
G04 Offset:    (0.0000 0.0000)*
G04 Mirror:    No*
G04 Mode:      Positive*
G04 Rotation:  0*
G04 FullContactRelief:  No*
G04 UndefLineWidth:     0.2000*
G04 ================== end FILE IDENTIFICATION RECORD ====================*
%FSLAX55Y55*MOMM*%
%IR0*IPPOS*OFA0.00000B0.00000*MIA0B0*SFA1.00000B1.00000*%
%AMMACRO11*
1,1,.2,-.44995,.25005*
20,1,.2,-.44995,.25005,.44995,.25005,0.0*
1,1,.2,.44995,.25005*
20,1,.2,.44995,.25005,.493371,.246251,0.0*
1,1,.2,.493371,.246251*
20,1,.2,.493371,.246251,.535472,.23497,0.0*
1,1,.2,.535472,.23497*
20,1,.2,.535472,.23497,.574975,.21655,0.0*
1,1,.2,.574975,.21655*
20,1,.2,.574975,.21655,.610679,.191549,0.0*
1,1,.2,.610679,.191549*
20,1,.2,.610679,.191549,.641499,.160729,0.0*
1,1,.2,.641499,.160729*
20,1,.2,.641499,.160729,.6665,.125025,0.0*
1,1,.2,.6665,.125025*
20,1,.2,.6665,.125025,.68492,.085522,0.0*
1,1,.2,.68492,.085522*
20,1,.2,.68492,.085522,.696201,.043421,0.0*
1,1,.2,.696201,.043421*
20,1,.2,.696201,.043421,.7,0.0,0.0*
1,1,.2,.7,0.0*
20,1,.2,.7,0.0,.696201,-.043421,0.0*
1,1,.2,.696201,-.043421*
20,1,.2,.696201,-.043421,.68492,-.085522,0.0*
1,1,.2,.68492,-.085522*
20,1,.2,.68492,-.085522,.6665,-.125025,0.0*
1,1,.2,.6665,-.125025*
20,1,.2,.6665,-.125025,.641499,-.160729,0.0*
1,1,.2,.641499,-.160729*
20,1,.2,.641499,-.160729,.610679,-.191549,0.0*
1,1,.2,.610679,-.191549*
20,1,.2,.610679,-.191549,.574975,-.21655,0.0*
1,1,.2,.574975,-.21655*
20,1,.2,.574975,-.21655,.535472,-.23497,0.0*
1,1,.2,.535472,-.23497*
20,1,.2,.535472,-.23497,.493371,-.246251,0.0*
1,1,.2,.493371,-.246251*
20,1,.2,.493371,-.246251,.44995,-.25005,0.0*
1,1,.2,.44995,-.25005*
20,1,.2,.44995,-.25005,-.44995,-.25005,0.0*
1,1,.2,-.44995,-.25005*
20,1,.2,-.44995,-.25005,-.493371,-.246251,0.0*
1,1,.2,-.493371,-.246251*
20,1,.2,-.493371,-.246251,-.535472,-.23497,0.0*
1,1,.2,-.535472,-.23497*
20,1,.2,-.535472,-.23497,-.574975,-.21655,0.0*
1,1,.2,-.574975,-.21655*
20,1,.2,-.574975,-.21655,-.610679,-.191549,0.0*
1,1,.2,-.610679,-.191549*
20,1,.2,-.610679,-.191549,-.641499,-.160729,0.0*
1,1,.2,-.641499,-.160729*
20,1,.2,-.641499,-.160729,-.6665,-.125025,0.0*
1,1,.2,-.6665,-.125025*
20,1,.2,-.6665,-.125025,-.68492,-.085522,0.0*
1,1,.2,-.68492,-.085522*
20,1,.2,-.68492,-.085522,-.696201,-.043421,0.0*
1,1,.2,-.696201,-.043421*
20,1,.2,-.696201,-.043421,-.7,0.0,0.0*
1,1,.2,-.7,0.0*
20,1,.2,-.7,0.0,-.696201,.043421,0.0*
1,1,.2,-.696201,.043421*
20,1,.2,-.696201,.043421,-.68492,.085522,0.0*
1,1,.2,-.68492,.085522*
20,1,.2,-.68492,.085522,-.6665,.125025,0.0*
1,1,.2,-.6665,.125025*
20,1,.2,-.6665,.125025,-.641499,.160729,0.0*
1,1,.2,-.641499,.160729*
20,1,.2,-.641499,.160729,-.610679,.191549,0.0*
1,1,.2,-.610679,.191549*
20,1,.2,-.610679,.191549,-.574975,.21655,0.0*
1,1,.2,-.574975,.21655*
20,1,.2,-.574975,.21655,-.535472,.23497,0.0*
1,1,.2,-.535472,.23497*
20,1,.2,-.535472,.23497,-.493371,.246251,0.0*
1,1,.2,-.493371,.246251*
20,1,.2,-.493371,.246251,-.44995,.25005,0.0*
1,1,.2,-.44995,.25005*
%
%ADD11MACRO11*%
%AMMACRO13*
1,1,.2,.635,0.0*
20,1,.2,.635,0.0,.625353,-.110267,0.0*
1,1,.2,.625353,-.110267*
20,1,.2,.625353,-.110267,.596705,-.217183,0.0*
1,1,.2,.596705,-.217183*
20,1,.2,.596705,-.217183,.549926,-.3175,0.0*
1,1,.2,.549926,-.3175*
20,1,.2,.549926,-.3175,.486438,-.40817,0.0*
1,1,.2,.486438,-.40817*
20,1,.2,.486438,-.40817,.40817,-.486438,0.0*
1,1,.2,.40817,-.486438*
20,1,.2,.40817,-.486438,.3175,-.549926,0.0*
1,1,.2,.3175,-.549926*
20,1,.2,.3175,-.549926,.217183,-.596705,0.0*
1,1,.2,.217183,-.596705*
20,1,.2,.217183,-.596705,.110267,-.625353,0.0*
1,1,.2,.110267,-.625353*
20,1,.2,.110267,-.625353,0.0,-.635,0.0*
1,1,.2,0.0,-.635*
20,1,.2,0.0,-.635,-.110267,-.625353,0.0*
1,1,.2,-.110267,-.625353*
20,1,.2,-.110267,-.625353,-.217183,-.596705,0.0*
1,1,.2,-.217183,-.596705*
20,1,.2,-.217183,-.596705,-.3175,-.549926,0.0*
1,1,.2,-.3175,-.549926*
20,1,.2,-.3175,-.549926,-.40817,-.486438,0.0*
1,1,.2,-.40817,-.486438*
20,1,.2,-.40817,-.486438,-.486438,-.40817,0.0*
1,1,.2,-.486438,-.40817*
20,1,.2,-.486438,-.40817,-.549926,-.3175,0.0*
1,1,.2,-.549926,-.3175*
20,1,.2,-.549926,-.3175,-.596705,-.217183,0.0*
1,1,.2,-.596705,-.217183*
20,1,.2,-.596705,-.217183,-.625353,-.110267,0.0*
1,1,.2,-.625353,-.110267*
20,1,.2,-.625353,-.110267,-.635,0.0,0.0*
1,1,.2,-.635,0.0*
20,1,.2,-.635,0.0,-.625353,.110267,0.0*
1,1,.2,-.625353,.110267*
20,1,.2,-.625353,.110267,-.596705,.217183,0.0*
1,1,.2,-.596705,.217183*
20,1,.2,-.596705,.217183,-.549926,.3175,0.0*
1,1,.2,-.549926,.3175*
20,1,.2,-.549926,.3175,-.486438,.40817,0.0*
1,1,.2,-.486438,.40817*
20,1,.2,-.486438,.40817,-.40817,.486438,0.0*
1,1,.2,-.40817,.486438*
20,1,.2,-.40817,.486438,-.3175,.549926,0.0*
1,1,.2,-.3175,.549926*
20,1,.2,-.3175,.549926,-.217183,.596705,0.0*
1,1,.2,-.217183,.596705*
20,1,.2,-.217183,.596705,-.110267,.625353,0.0*
1,1,.2,-.110267,.625353*
20,1,.2,-.110267,.625353,0.0,.635,0.0*
1,1,.2,0.0,.635*
20,1,.2,0.0,.635,.110267,.625353,0.0*
1,1,.2,.110267,.625353*
20,1,.2,.110267,.625353,.217183,.596705,0.0*
1,1,.2,.217183,.596705*
20,1,.2,.217183,.596705,.3175,.549926,0.0*
1,1,.2,.3175,.549926*
20,1,.2,.3175,.549926,.40817,.486438,0.0*
1,1,.2,.40817,.486438*
20,1,.2,.40817,.486438,.486438,.40817,0.0*
1,1,.2,.486438,.40817*
20,1,.2,.486438,.40817,.549926,.3175,0.0*
1,1,.2,.549926,.3175*
20,1,.2,.549926,.3175,.596705,.217183,0.0*
1,1,.2,.596705,.217183*
20,1,.2,.596705,.217183,.625353,.110267,0.0*
1,1,.2,.625353,.110267*
20,1,.2,.625353,.110267,.635,0.0,0.0*
1,1,.2,.635,0.0*
1,1,.2,.3175,0.0*
20,1,.2,.3175,0.0,-.3175,0.0,0.0*
1,1,.2,-.3175,0.0*
1,1,.2,0.0,.3175*
20,1,.2,0.0,.3175,0.0,-.3175,0.0*
1,1,.2,0.0,-.3175*
%
%ADD13MACRO13*%
%AMMACRO14*
1,1,.2,.533,0.0*
20,1,.2,.533,0.0,.524903,-.092554,0.0*
1,1,.2,.524903,-.092554*
20,1,.2,.524903,-.092554,.500856,-.182297,0.0*
1,1,.2,.500856,-.182297*
20,1,.2,.500856,-.182297,.461592,-.2665,0.0*
1,1,.2,.461592,-.2665*
20,1,.2,.461592,-.2665,.408302,-.342606,0.0*
1,1,.2,.408302,-.342606*
20,1,.2,.408302,-.342606,.342606,-.408302,0.0*
1,1,.2,.342606,-.408302*
20,1,.2,.342606,-.408302,.2665,-.461592,0.0*
1,1,.2,.2665,-.461592*
20,1,.2,.2665,-.461592,.182297,-.500856,0.0*
1,1,.2,.182297,-.500856*
20,1,.2,.182297,-.500856,.092554,-.524903,0.0*
1,1,.2,.092554,-.524903*
20,1,.2,.092554,-.524903,0.0,-.533,0.0*
1,1,.2,0.0,-.533*
20,1,.2,0.0,-.533,-.092554,-.524903,0.0*
1,1,.2,-.092554,-.524903*
20,1,.2,-.092554,-.524903,-.182297,-.500856,0.0*
1,1,.2,-.182297,-.500856*
20,1,.2,-.182297,-.500856,-.2665,-.461592,0.0*
1,1,.2,-.2665,-.461592*
20,1,.2,-.2665,-.461592,-.342606,-.408302,0.0*
1,1,.2,-.342606,-.408302*
20,1,.2,-.342606,-.408302,-.408302,-.342606,0.0*
1,1,.2,-.408302,-.342606*
20,1,.2,-.408302,-.342606,-.461592,-.2665,0.0*
1,1,.2,-.461592,-.2665*
20,1,.2,-.461592,-.2665,-.500856,-.182297,0.0*
1,1,.2,-.500856,-.182297*
20,1,.2,-.500856,-.182297,-.524903,-.092554,0.0*
1,1,.2,-.524903,-.092554*
20,1,.2,-.524903,-.092554,-.533,0.0,0.0*
1,1,.2,-.533,0.0*
20,1,.2,-.533,0.0,-.524903,.092554,0.0*
1,1,.2,-.524903,.092554*
20,1,.2,-.524903,.092554,-.500856,.182297,0.0*
1,1,.2,-.500856,.182297*
20,1,.2,-.500856,.182297,-.461592,.2665,0.0*
1,1,.2,-.461592,.2665*
20,1,.2,-.461592,.2665,-.408302,.342606,0.0*
1,1,.2,-.408302,.342606*
20,1,.2,-.408302,.342606,-.342606,.408302,0.0*
1,1,.2,-.342606,.408302*
20,1,.2,-.342606,.408302,-.2665,.461592,0.0*
1,1,.2,-.2665,.461592*
20,1,.2,-.2665,.461592,-.182297,.500856,0.0*
1,1,.2,-.182297,.500856*
20,1,.2,-.182297,.500856,-.092554,.524903,0.0*
1,1,.2,-.092554,.524903*
20,1,.2,-.092554,.524903,0.0,.533,0.0*
1,1,.2,0.0,.533*
20,1,.2,0.0,.533,.092554,.524903,0.0*
1,1,.2,.092554,.524903*
20,1,.2,.092554,.524903,.182297,.500856,0.0*
1,1,.2,.182297,.500856*
20,1,.2,.182297,.500856,.2665,.461592,0.0*
1,1,.2,.2665,.461592*
20,1,.2,.2665,.461592,.342606,.408302,0.0*
1,1,.2,.342606,.408302*
20,1,.2,.342606,.408302,.408302,.342606,0.0*
1,1,.2,.408302,.342606*
20,1,.2,.408302,.342606,.461592,.2665,0.0*
1,1,.2,.461592,.2665*
20,1,.2,.461592,.2665,.500856,.182297,0.0*
1,1,.2,.500856,.182297*
20,1,.2,.500856,.182297,.524903,.092554,0.0*
1,1,.2,.524903,.092554*
20,1,.2,.524903,.092554,.533,0.0,0.0*
1,1,.2,.533,0.0*
1,1,.2,-.2221,-.2665*
20,1,.2,-.2221,-.2665,0.0,.2665,0.0*
1,1,.2,0.0,.2665*
20,1,.2,0.0,.2665,.2221,-.2665,0.0*
1,1,.2,.2221,-.2665*
1,1,.2,.1421,-.08*
20,1,.2,.1421,-.08,-.1421,-.08,0.0*
1,1,.2,-.1421,-.08*
%
%ADD14MACRO14*%
%AMMACRO10*
1,1,.2,-.6668,-.9525*
20,1,.2,-.6668,-.9525,.6668,.9525,0.0*
1,1,.2,.6668,.9525*
1,1,.2,-.6668,.9525*
20,1,.2,-.6668,.9525,.6668,-.9525,0.0*
1,1,.2,.6668,-.9525*
%
%ADD10MACRO10*%
%AMMACRO12*
1,1,.2,.39345,0.0*
20,1,.2,.39345,0.0,.387473,-.068322,0.0*
1,1,.2,.387473,-.068322*
20,1,.2,.387473,-.068322,.369722,-.134568,0.0*
1,1,.2,.369722,-.134568*
20,1,.2,.369722,-.134568,.340738,-.196725,0.0*
1,1,.2,.340738,-.196725*
20,1,.2,.340738,-.196725,.3014,-.252905,0.0*
1,1,.2,.3014,-.252905*
20,1,.2,.3014,-.252905,.252905,-.3014,0.0*
1,1,.2,.252905,-.3014*
20,1,.2,.252905,-.3014,.196725,-.340738,0.0*
1,1,.2,.196725,-.340738*
20,1,.2,.196725,-.340738,.134568,-.369722,0.0*
1,1,.2,.134568,-.369722*
20,1,.2,.134568,-.369722,.068322,-.387473,0.0*
1,1,.2,.068322,-.387473*
20,1,.2,.068322,-.387473,0.0,-.39345,0.0*
1,1,.2,0.0,-.39345*
20,1,.2,0.0,-.39345,-.068322,-.387473,0.0*
1,1,.2,-.068322,-.387473*
20,1,.2,-.068322,-.387473,-.134568,-.369722,0.0*
1,1,.2,-.134568,-.369722*
20,1,.2,-.134568,-.369722,-.196725,-.340738,0.0*
1,1,.2,-.196725,-.340738*
20,1,.2,-.196725,-.340738,-.252905,-.3014,0.0*
1,1,.2,-.252905,-.3014*
20,1,.2,-.252905,-.3014,-.3014,-.252905,0.0*
1,1,.2,-.3014,-.252905*
20,1,.2,-.3014,-.252905,-.340738,-.196725,0.0*
1,1,.2,-.340738,-.196725*
20,1,.2,-.340738,-.196725,-.369722,-.134568,0.0*
1,1,.2,-.369722,-.134568*
20,1,.2,-.369722,-.134568,-.387473,-.068322,0.0*
1,1,.2,-.387473,-.068322*
20,1,.2,-.387473,-.068322,-.39345,0.0,0.0*
1,1,.2,-.39345,0.0*
20,1,.2,-.39345,0.0,-.387473,.068322,0.0*
1,1,.2,-.387473,.068322*
20,1,.2,-.387473,.068322,-.369722,.134568,0.0*
1,1,.2,-.369722,.134568*
20,1,.2,-.369722,.134568,-.340738,.196725,0.0*
1,1,.2,-.340738,.196725*
20,1,.2,-.340738,.196725,-.3014,.252905,0.0*
1,1,.2,-.3014,.252905*
20,1,.2,-.3014,.252905,-.252905,.3014,0.0*
1,1,.2,-.252905,.3014*
20,1,.2,-.252905,.3014,-.196725,.340738,0.0*
1,1,.2,-.196725,.340738*
20,1,.2,-.196725,.340738,-.134568,.369722,0.0*
1,1,.2,-.134568,.369722*
20,1,.2,-.134568,.369722,-.068322,.387473,0.0*
1,1,.2,-.068322,.387473*
20,1,.2,-.068322,.387473,0.0,.39345,0.0*
1,1,.2,0.0,.39345*
20,1,.2,0.0,.39345,.068322,.387473,0.0*
1,1,.2,.068322,.387473*
20,1,.2,.068322,.387473,.134568,.369722,0.0*
1,1,.2,.134568,.369722*
20,1,.2,.134568,.369722,.196725,.340738,0.0*
1,1,.2,.196725,.340738*
20,1,.2,.196725,.340738,.252905,.3014,0.0*
1,1,.2,.252905,.3014*
20,1,.2,.252905,.3014,.3014,.252905,0.0*
1,1,.2,.3014,.252905*
20,1,.2,.3014,.252905,.340738,.196725,0.0*
1,1,.2,.340738,.196725*
20,1,.2,.340738,.196725,.369722,.134568,0.0*
1,1,.2,.369722,.134568*
20,1,.2,.369722,.134568,.387473,.068322,0.0*
1,1,.2,.387473,.068322*
20,1,.2,.387473,.068322,.39345,0.0,0.0*
1,1,.2,.39345,0.0*
1,1,.2,-.1639,-.1967*
20,1,.2,-.1639,-.1967,0.0,.1967,0.0*
1,1,.2,0.0,.1967*
20,1,.2,0.0,.1967,.1639,-.1967,0.0*
1,1,.2,.1639,-.1967*
1,1,.2,.1049,-.059*
20,1,.2,.1049,-.059,-.1049,-.059,0.0*
1,1,.2,-.1049,-.059*
%
%ADD12MACRO12*%
%ADD15C,.2*%
G75*
%LPD*%
G75*
G54D10*
X26750000Y13780000D03*
X26718750Y17125000D03*
X36580000Y13790000D03*
Y17130000D03*
X39941730Y13977500D03*
G54D11*
X26937500Y14738000D03*
Y15762000D03*
X27307500Y14738000D03*
Y15762000D03*
X39941730Y13342500D03*
G54D12*
X26843750Y16402250D03*
Y16656250D03*
X27593750Y16402250D03*
Y16656250D03*
X28287000Y15801000D03*
Y16055000D03*
X29969250Y16343250D03*
X30731250D03*
X32970000Y14560000D03*
X33732000D03*
X33776250Y17000000D03*
X34093750D03*
X39941730Y15247500D03*
G54D13*
X29437500Y13781250D03*
X29313750Y15711250D03*
Y16023750D03*
X29832500Y15473750D03*
Y15742500D03*
X30343750Y16187500D03*
X30872250Y15801000D03*
X31657500Y15992500D03*
X31343750Y16687500D03*
X31813750Y16867500D03*
X33188750Y15586250D03*
Y15367500D03*
X32845000Y15648750D03*
X33188750Y15836250D03*
X32845000D03*
X32876250Y15992500D03*
X32813750Y16305000D03*
X33657500Y14930000D03*
X33628650Y15838650D03*
Y16115100D03*
X33532500Y15992500D03*
X34251250Y14211250D03*
Y16148750D03*
Y16430000D03*
X39941730Y15882500D03*
G54D14*
X32255250Y14755750D03*
Y15517750D03*
Y15263750D03*
Y15009750D03*
Y15771750D03*
X34376250Y14930000D03*
Y15692000D03*
Y15438000D03*
Y15184000D03*
Y15946000D03*
X36563750Y15555000D03*
Y16317000D03*
Y16063000D03*
Y15809000D03*
Y16571000D03*
X39941730Y14612500D03*
G54D15*
G01X26162000Y13208000D02*
Y17708000D01*
X37162000D01*
Y13208000D01*
X26162000D01*
G01D02*
Y17708000D01*
X37162000D01*
Y13208000D01*
X26162000D01*
G01Y17958000D02*
Y20140000D01*
G01X30908810Y19890000D02*
X26162000D01*
G01X26562000Y19952500D02*
X26162000Y19890000D01*
X26562000Y19827500D01*
Y19952500D01*
G01X31265040Y19731250D02*
Y20048750D01*
X31217800Y19985250D01*
G01Y19731250D02*
X31312280D01*
G01X31580000D02*
Y20048750D01*
X31532760Y19985250D01*
G01Y19731250D02*
X31627240D01*
G01X31894960Y20048750D02*
X31863460Y20038170D01*
X31839840Y20011710D01*
X31824090Y19979960D01*
X31812280Y19937620D01*
X31808350Y19890000D01*
X31812280Y19842370D01*
X31824090Y19800040D01*
X31839840Y19768280D01*
X31863460Y19741830D01*
X31894960Y19731250D01*
X31926450Y19741830D01*
X31950080Y19768280D01*
X31965830Y19800040D01*
X31977640Y19842370D01*
X31981570Y19890000D01*
X31977640Y19937620D01*
X31965830Y19979960D01*
X31950080Y20011710D01*
X31926450Y20038170D01*
X31894960Y20048750D01*
G01X32251190Y19890000D02*
X37162000D01*
G01X36762000Y19827500D02*
X37162000Y19890000D01*
X36762000Y19952500D01*
Y19827500D01*
G01X37412000Y13208000D02*
X38330000D01*
G01X37969760Y15351250D02*
Y15668750D01*
X37824090Y15441210D01*
X38020950D01*
G01X38150870Y15398860D02*
X38174480Y15372410D01*
X38202040Y15356540D01*
X38237480Y15351250D01*
X38272920Y15361830D01*
X38300470Y15382990D01*
X38320160Y15420040D01*
X38324090Y15462370D01*
X38316220Y15504700D01*
X38296530Y15531170D01*
X38268970Y15552330D01*
X38241420Y15557620D01*
X38213860Y15552330D01*
X38178430Y15531170D01*
X38190240Y15668750D01*
X38296530D01*
G01X37412000Y17708000D02*
X38330000D01*
G01X37162000Y17958000D02*
Y20140000D01*
G01X38080000Y15113130D02*
Y13208000D01*
G01X38017500Y13608000D02*
X38080000Y13208000D01*
X38142500Y13608000D01*
X38017500D01*
G01X38080000Y15906870D02*
Y17708000D01*
G01X38142500Y17308000D02*
X38080000Y17708000D01*
X38017500Y17308000D01*
X38142500D01*
G01X38800000Y13025000D02*
Y18120000D01*
X51398400D01*
Y13025000D01*
X38800000D01*
G01Y13660000D02*
X51398400D01*
G01X38800000Y14295000D02*
X51398400D01*
G01X38800000Y14930000D02*
X51398400D01*
G01X38800000Y15565000D02*
X51398400D01*
G01X38800000Y16200000D02*
X51398400D01*
G01X39079520Y16358750D02*
Y16676250D01*
X39229140D01*
G01X39174010Y16522800D02*
X39079520D01*
G01X39422050Y16676250D02*
X39516530D01*
G01X39469290D02*
Y16358750D01*
G01X39422050D02*
X39516530D01*
G01X39807870Y16517500D02*
X39886620D01*
Y16422250D01*
X39862990Y16390490D01*
X39835430Y16369330D01*
X39796060Y16358750D01*
X39756690Y16369330D01*
X39729130Y16390490D01*
X39705510Y16422250D01*
X39689760Y16459290D01*
X39681880Y16501620D01*
Y16538670D01*
X39689760Y16570410D01*
X39705510Y16607460D01*
X39729130Y16639210D01*
X39752750Y16660370D01*
X39784250Y16676250D01*
X39811810D01*
X39843300Y16665670D01*
X39866930Y16644500D01*
G01X40012600Y16676250D02*
Y16448710D01*
X40028340Y16401070D01*
X40059840Y16369330D01*
X40099210Y16358750D01*
X40138580Y16369330D01*
X40170080Y16401070D01*
X40185820Y16448710D01*
Y16676250D01*
G01X40335430Y16358750D02*
Y16676250D01*
X40433850D01*
X40465350Y16660370D01*
X40485040Y16639210D01*
X40492910Y16596870D01*
X40485040Y16554540D01*
X40461410Y16528090D01*
X40433850Y16512200D01*
X40335430D01*
G01X40433850D02*
X40492910Y16358750D01*
G01X40807870D02*
X40650390D01*
Y16676250D01*
X40807870D01*
G01X40744880Y16522800D02*
X40650390D01*
G01X38800000Y16835000D02*
X51398400D01*
G01X38800000Y17470000D02*
X51398400D01*
G01X40748810Y16993750D02*
X40847240Y17311250D01*
X40945670Y16993750D01*
G01X40910230Y17104870D02*
X40784240D01*
G01X41083460Y17311250D02*
Y16993750D01*
X41240940D01*
G01X41398420Y17311250D02*
Y16993750D01*
X41555900D01*
G01X42020470Y17311250D02*
Y17083710D01*
X42036210Y17036070D01*
X42067710Y17004330D01*
X42107080Y16993750D01*
X42146450Y17004330D01*
X42177950Y17036070D01*
X42193690Y17083710D01*
Y17311250D01*
G01X42331490Y16993750D02*
Y17311250D01*
X42512590Y16993750D01*
Y17311250D01*
G01X42689760D02*
X42784240D01*
G01X42737000D02*
Y16993750D01*
G01X42689760D02*
X42784240D01*
G01X43051960Y17311250D02*
Y16993750D01*
G01X42961410Y17311250D02*
X43142510D01*
G01X43284240Y17036070D02*
X43315740Y17009620D01*
X43351170Y16993750D01*
X43382670D01*
X43414160Y17009620D01*
X43437790Y17036070D01*
X43449600Y17073130D01*
X43441730Y17110160D01*
X43422040Y17141910D01*
X43386600Y17163090D01*
X43339360Y17173670D01*
X43311800Y17194830D01*
X43299990Y17231870D01*
X43307870Y17268920D01*
X43327550Y17295370D01*
X43355110Y17311250D01*
X43382670D01*
X43410230Y17300670D01*
X43433850Y17274210D01*
G01X43898410Y16993750D02*
X43996840Y17311250D01*
X44095270Y16993750D01*
G01X44059830Y17104870D02*
X43933840D01*
G01X44233060Y16993750D02*
Y17311250D01*
X44331480D01*
X44362980Y17295370D01*
X44382670Y17274210D01*
X44390540Y17231870D01*
X44382670Y17189540D01*
X44359040Y17163090D01*
X44331480Y17147200D01*
X44233060D01*
G01X44331480D02*
X44390540Y16993750D01*
G01X44705500D02*
X44548020D01*
Y17311250D01*
X44705500D01*
G01X44642510Y17157800D02*
X44548020D01*
G01X45209440Y17311250D02*
X45303920D01*
G01X45256680D02*
Y16993750D01*
G01X45209440D02*
X45303920D01*
G01X45481090D02*
Y17311250D01*
X45662190Y16993750D01*
Y17311250D01*
G01X46099190Y16993750D02*
Y17311250D01*
X46201560Y17046670D01*
X46303930Y17311250D01*
Y16993750D01*
G01X46469280Y17311250D02*
X46563760D01*
G01X46516520D02*
Y16993750D01*
G01X46469280D02*
X46563760D01*
G01X46752740Y17311250D02*
Y16993750D01*
X46910220D01*
G01X47067700Y17311250D02*
Y16993750D01*
X47225180D01*
G01X47414160Y17311250D02*
X47508640D01*
G01X47461400D02*
Y16993750D01*
G01X47414160D02*
X47508640D01*
G01X47673990D02*
Y17311250D01*
X47776360Y17046670D01*
X47878730Y17311250D01*
Y16993750D01*
G01X48170060D02*
X48012580D01*
Y17311250D01*
X48170060D01*
G01X48107070Y17157800D02*
X48012580D01*
G01X48406280Y17311250D02*
Y16993750D01*
G01X48315730Y17311250D02*
X48496830D01*
G01X48799980Y16993750D02*
X48642500D01*
Y17311250D01*
X48799980D01*
G01X48736990Y17157800D02*
X48642500D01*
G01X48957460Y16993750D02*
Y17311250D01*
X49055880D01*
X49087380Y17295370D01*
X49107070Y17274210D01*
X49114940Y17231870D01*
X49107070Y17189540D01*
X49083440Y17163090D01*
X49055880Y17147200D01*
X48957460D01*
G01X49055880D02*
X49114940Y16993750D01*
G01X49268480Y17036070D02*
X49299980Y17009620D01*
X49335410Y16993750D01*
X49366910D01*
X49398400Y17009620D01*
X49422030Y17036070D01*
X49433840Y17073130D01*
X49425970Y17110160D01*
X49406280Y17141910D01*
X49370840Y17163090D01*
X49323600Y17173670D01*
X49296040Y17194830D01*
X49284230Y17231870D01*
X49292110Y17268920D01*
X49311790Y17295370D01*
X49339350Y17311250D01*
X49366910D01*
X49394470Y17300670D01*
X49418090Y17274210D01*
G01X41083460Y16835000D02*
Y13025000D01*
G01X41075590Y17643750D02*
Y17961250D01*
X41154320D01*
X41185820Y17945370D01*
X41209440Y17924210D01*
X41229130Y17892460D01*
X41244880Y17855410D01*
X41248810Y17802500D01*
X41244880Y17749580D01*
X41229130Y17712540D01*
X41209440Y17680780D01*
X41185820Y17659620D01*
X41154320Y17643750D01*
X41075590D01*
G01X41398420D02*
Y17961250D01*
X41496840D01*
X41528340Y17945370D01*
X41548030Y17924210D01*
X41555900Y17881870D01*
X41548030Y17839540D01*
X41524400Y17813090D01*
X41496840Y17797200D01*
X41398420D01*
G01X41496840D02*
X41555900Y17643750D01*
G01X41744880Y17961250D02*
X41839360D01*
G01X41792120D02*
Y17643750D01*
G01X41744880D02*
X41839360D01*
G01X42028340Y17961250D02*
Y17643750D01*
X42185820D01*
G01X42343300Y17961250D02*
Y17643750D01*
X42500780D01*
G01X43138570Y17934790D02*
X43114950Y17950670D01*
X43087400Y17961250D01*
X43055900D01*
X43020460Y17945370D01*
X42992910Y17918920D01*
X42973220Y17887160D01*
X42957470Y17834250D01*
X42953530Y17786620D01*
X42961410Y17739000D01*
X42973220Y17707250D01*
X42996840Y17675490D01*
X43024400Y17654330D01*
X43051960Y17643750D01*
X43079520D01*
X43107080Y17654330D01*
X43130700Y17670200D01*
X43150390Y17691360D01*
G01X43284240Y17643750D02*
Y17961250D01*
G01X43449600D02*
Y17643750D01*
G01Y17802500D02*
X43284240D01*
G01X43583450Y17643750D02*
X43681880Y17961250D01*
X43780310Y17643750D01*
G01X43744870Y17754870D02*
X43618880D01*
G01X43918100Y17643750D02*
Y17961250D01*
X44016520D01*
X44048020Y17945370D01*
X44067710Y17924210D01*
X44075580Y17881870D01*
X44067710Y17839540D01*
X44044080Y17813090D01*
X44016520Y17797200D01*
X43918100D01*
G01X44016520D02*
X44075580Y17643750D01*
G01X44311800Y17961250D02*
Y17643750D01*
G01X44221250Y17961250D02*
X44402350D01*
G01X44626760Y17633170D02*
X44618880Y17638460D01*
Y17649040D01*
X44626760Y17654330D01*
X44634640Y17649040D01*
Y17638460D01*
X44626760Y17633170D01*
G01Y17776030D02*
X44618880Y17781330D01*
Y17791910D01*
X44626760Y17797200D01*
X44634640Y17791910D01*
Y17781330D01*
X44626760Y17776030D01*
G01X45256680Y17961250D02*
Y17643750D01*
G01X45166130Y17961250D02*
X45347230D01*
G01X45571640Y17643750D02*
X45540140Y17649040D01*
X45512590Y17670200D01*
X45488960Y17701960D01*
X45473210Y17739000D01*
X45465340Y17781330D01*
Y17823670D01*
X45473210Y17866000D01*
X45488960Y17903040D01*
X45512590Y17934790D01*
X45540140Y17955960D01*
X45571640Y17961250D01*
X45603130Y17955960D01*
X45630690Y17934790D01*
X45654320Y17903040D01*
X45670070Y17866000D01*
X45677940Y17823670D01*
Y17781330D01*
X45670070Y17739000D01*
X45654320Y17701960D01*
X45630690Y17670200D01*
X45603130Y17649040D01*
X45571640Y17643750D01*
G01X45807860D02*
Y17961250D01*
X45902350D01*
X45933840Y17945370D01*
X45957470Y17908330D01*
X45965340Y17866000D01*
X45957470Y17823670D01*
X45937780Y17791910D01*
X45902350Y17776030D01*
X45807860D01*
G01X46516520Y17961250D02*
Y17643750D01*
G01X46461400Y17855410D02*
X46571640D01*
G01X46831480Y17643750D02*
X46807860Y17649040D01*
X46784240Y17670200D01*
X46768480Y17707250D01*
X46760610Y17749580D01*
X46768480Y17791910D01*
X46784240Y17828960D01*
X46807860Y17850120D01*
X46831480Y17855410D01*
X46855100Y17850120D01*
X46878720Y17828960D01*
X46894470Y17791910D01*
X46898410Y17749580D01*
X46894470Y17707250D01*
X46878720Y17670200D01*
X46855100Y17649040D01*
X46831480Y17643750D01*
G01X47492890Y17813090D02*
X47508640Y17828960D01*
X47520450Y17855410D01*
X47528330Y17892460D01*
X47520450Y17924210D01*
X47504710Y17945370D01*
X47477150Y17961250D01*
X47370850D01*
Y17643750D01*
X47500770D01*
X47528330Y17664910D01*
X47544080Y17696670D01*
X47551950Y17733710D01*
X47544080Y17770740D01*
X47520450Y17802500D01*
X47492890Y17813090D01*
X47370850D01*
G01X47776360Y17643750D02*
X47744860Y17649040D01*
X47717310Y17670200D01*
X47693680Y17701960D01*
X47677930Y17739000D01*
X47670060Y17781330D01*
Y17823670D01*
X47677930Y17866000D01*
X47693680Y17903040D01*
X47717310Y17934790D01*
X47744860Y17955960D01*
X47776360Y17961250D01*
X47807850Y17955960D01*
X47835410Y17934790D01*
X47859040Y17903040D01*
X47874790Y17866000D01*
X47882660Y17823670D01*
Y17781330D01*
X47874790Y17739000D01*
X47859040Y17701960D01*
X47835410Y17670200D01*
X47807850Y17649040D01*
X47776360Y17643750D01*
G01X48091320Y17961250D02*
Y17643750D01*
G01X48000770Y17961250D02*
X48181870D01*
G01X48406280D02*
Y17643750D01*
G01X48315730Y17961250D02*
X48496830D01*
G01X48721240Y17643750D02*
X48689740Y17649040D01*
X48662190Y17670200D01*
X48638560Y17701960D01*
X48622810Y17739000D01*
X48614940Y17781330D01*
Y17823670D01*
X48622810Y17866000D01*
X48638560Y17903040D01*
X48662190Y17934790D01*
X48689740Y17955960D01*
X48721240Y17961250D01*
X48752730Y17955960D01*
X48780290Y17934790D01*
X48803920Y17903040D01*
X48819670Y17866000D01*
X48827540Y17823670D01*
Y17781330D01*
X48819670Y17739000D01*
X48803920Y17701960D01*
X48780290Y17670200D01*
X48752730Y17649040D01*
X48721240Y17643750D01*
G01X48933830D02*
Y17961250D01*
X49036200Y17696670D01*
X49138570Y17961250D01*
Y17643750D01*
G01X42225190Y13183750D02*
Y13501250D01*
X42177950Y13437750D01*
G01Y13183750D02*
X42272430D01*
G01X42540150Y13173170D02*
X42532270Y13178460D01*
Y13189040D01*
X42540150Y13194330D01*
X42548030Y13189040D01*
Y13178460D01*
X42540150Y13173170D01*
G01X42902350Y13183750D02*
Y13501250D01*
X42756680Y13273710D01*
X42953540D01*
G01X43111020Y13395410D02*
X43229120Y13183750D01*
G01Y13395410D02*
X43111020Y13183750D01*
G01X43485030Y13501250D02*
X43453530Y13490670D01*
X43429910Y13464210D01*
X43414160Y13432460D01*
X43402350Y13390120D01*
X43398420Y13342500D01*
X43402350Y13294870D01*
X43414160Y13252540D01*
X43429910Y13220780D01*
X43453530Y13194330D01*
X43485030Y13183750D01*
X43516520Y13194330D01*
X43540150Y13220780D01*
X43555900Y13252540D01*
X43567710Y13294870D01*
X43571640Y13342500D01*
X43567710Y13390120D01*
X43555900Y13432460D01*
X43540150Y13464210D01*
X43516520Y13490670D01*
X43485030Y13501250D01*
G01X43799990Y13173170D02*
X43792110Y13178460D01*
Y13189040D01*
X43799990Y13194330D01*
X43807870Y13189040D01*
Y13178460D01*
X43799990Y13173170D01*
G01X44028340Y13231360D02*
X44051950Y13204910D01*
X44079510Y13189040D01*
X44114950Y13183750D01*
X44150390Y13194330D01*
X44177940Y13215490D01*
X44197630Y13252540D01*
X44201560Y13294870D01*
X44193690Y13337200D01*
X44174000Y13363670D01*
X44146440Y13384830D01*
X44118890Y13390120D01*
X44091330Y13384830D01*
X44055900Y13363670D01*
X44067710Y13501250D01*
X44174000D01*
G01X44429910D02*
X44398410Y13490670D01*
X44374790Y13464210D01*
X44359040Y13432460D01*
X44347230Y13390120D01*
X44343300Y13342500D01*
X44347230Y13294870D01*
X44359040Y13252540D01*
X44374790Y13220780D01*
X44398410Y13194330D01*
X44429910Y13183750D01*
X44461400Y13194330D01*
X44485030Y13220780D01*
X44500780Y13252540D01*
X44512590Y13294870D01*
X44516520Y13342500D01*
X44512590Y13390120D01*
X44500780Y13432460D01*
X44485030Y13464210D01*
X44461400Y13490670D01*
X44429910Y13501250D01*
G01X44744870D02*
X44713370Y13490670D01*
X44689750Y13464210D01*
X44674000Y13432460D01*
X44662190Y13390120D01*
X44658260Y13342500D01*
X44662190Y13294870D01*
X44674000Y13252540D01*
X44689750Y13220780D01*
X44713370Y13194330D01*
X44744870Y13183750D01*
X44776360Y13194330D01*
X44799990Y13220780D01*
X44815740Y13252540D01*
X44827550Y13294870D01*
X44831480Y13342500D01*
X44827550Y13390120D01*
X44815740Y13432460D01*
X44799990Y13464210D01*
X44776360Y13490670D01*
X44744870Y13501250D01*
G01X45059830Y13183750D02*
Y13501250D01*
X45012590Y13437750D01*
G01Y13183750D02*
X45107070D01*
G01X41677940Y16358750D02*
Y16676250D01*
X41827560D01*
G01X41772430Y16522800D02*
X41677940D01*
G01X42020470Y16676250D02*
X42114950D01*
G01X42067710D02*
Y16358750D01*
G01X42020470D02*
X42114950D01*
G01X42292120D02*
Y16676250D01*
X42473220Y16358750D01*
Y16676250D01*
G01X42650390D02*
X42744870D01*
G01X42697630D02*
Y16358750D01*
G01X42650390D02*
X42744870D01*
G01X42929910Y16401070D02*
X42961410Y16374620D01*
X42996840Y16358750D01*
X43028340D01*
X43059830Y16374620D01*
X43083460Y16401070D01*
X43095270Y16438130D01*
X43087400Y16475160D01*
X43067710Y16506910D01*
X43032270Y16528090D01*
X42985030Y16538670D01*
X42957470Y16559830D01*
X42945660Y16596870D01*
X42953540Y16633920D01*
X42973220Y16660370D01*
X43000780Y16676250D01*
X43028340D01*
X43055900Y16665670D01*
X43079520Y16639210D01*
G01X43244870Y16358750D02*
Y16676250D01*
G01X43410230D02*
Y16358750D01*
G01Y16517500D02*
X43244870D01*
G01X43721250Y16358750D02*
X43563770D01*
Y16676250D01*
X43721250D01*
G01X43658260Y16522800D02*
X43563770D01*
G01X43870860Y16358750D02*
Y16676250D01*
X43949590D01*
X43981090Y16660370D01*
X44004710Y16639210D01*
X44024400Y16607460D01*
X44040150Y16570410D01*
X44044080Y16517500D01*
X44040150Y16464580D01*
X44024400Y16427540D01*
X44004710Y16395780D01*
X43981090Y16374620D01*
X43949590Y16358750D01*
X43870860D01*
G01X44154320Y16252920D02*
X44390540D01*
G01X44504710Y16401070D02*
X44536210Y16374620D01*
X44571640Y16358750D01*
X44603140D01*
X44634630Y16374620D01*
X44658260Y16401070D01*
X44670070Y16438130D01*
X44662200Y16475160D01*
X44642510Y16506910D01*
X44607070Y16528090D01*
X44559830Y16538670D01*
X44532270Y16559830D01*
X44520460Y16596870D01*
X44528340Y16633920D01*
X44548020Y16660370D01*
X44575580Y16676250D01*
X44603140D01*
X44630700Y16665670D01*
X44654320Y16639210D01*
G01X44855110Y16676250D02*
X44949590D01*
G01X44902350D02*
Y16358750D01*
G01X44855110D02*
X44949590D01*
G01X45142500Y16676250D02*
X45292120D01*
X45142500Y16358750D01*
X45292120D01*
G01X45611010D02*
X45453530D01*
Y16676250D01*
X45611010D01*
G01X45548020Y16522800D02*
X45453530D01*
G01X42925980Y13882250D02*
X42949590Y13845200D01*
X42981090Y13824040D01*
X43016530Y13818750D01*
X43048030Y13824040D01*
X43079520Y13850490D01*
X43099200Y13882250D01*
X43103140Y13914000D01*
X43095270Y13951030D01*
X43067710Y13977500D01*
X43040150Y13988090D01*
X43004710D01*
G01X43040150D02*
X43063770Y14003960D01*
X43083460Y14030410D01*
X43091330Y14062160D01*
X43083460Y14093920D01*
X43063770Y14120370D01*
X43028340Y14136250D01*
X42992910Y14130960D01*
X42957470Y14109790D01*
G01X43327550Y13808170D02*
X43319670Y13813460D01*
Y13824040D01*
X43327550Y13829330D01*
X43335430Y13824040D01*
Y13813460D01*
X43327550Y13808170D01*
G01X43642510Y13818750D02*
Y14136250D01*
X43595270Y14072750D01*
G01Y13818750D02*
X43689750D01*
G01X43949590D02*
X43957470Y13887540D01*
X43969280Y13945740D01*
X43985030Y13998670D01*
X44004710Y14056870D01*
X44036210Y14136250D01*
X43878730D01*
G01X44185820Y13866360D02*
X44209430Y13839910D01*
X44236990Y13824040D01*
X44272430Y13818750D01*
X44307870Y13829330D01*
X44335420Y13850490D01*
X44355110Y13887540D01*
X44359040Y13929870D01*
X44351170Y13972200D01*
X44331480Y13998670D01*
X44303920Y14019830D01*
X44276370Y14025120D01*
X44248810Y14019830D01*
X44213380Y13998670D01*
X44225190Y14136250D01*
X44331480D01*
G01X42855110Y14453750D02*
Y14771250D01*
X42807870Y14707750D01*
G01Y14453750D02*
X42902350D01*
G01X43170070Y14443170D02*
X43162190Y14448460D01*
Y14459040D01*
X43170070Y14464330D01*
X43177950Y14459040D01*
Y14448460D01*
X43170070Y14443170D01*
G01X43485030Y14771250D02*
X43453530Y14760670D01*
X43429910Y14734210D01*
X43414160Y14702460D01*
X43402350Y14660120D01*
X43398420Y14612500D01*
X43402350Y14564870D01*
X43414160Y14522540D01*
X43429910Y14490780D01*
X43453530Y14464330D01*
X43485030Y14453750D01*
X43516520Y14464330D01*
X43540150Y14490780D01*
X43555900Y14522540D01*
X43567710Y14564870D01*
X43571640Y14612500D01*
X43567710Y14660120D01*
X43555900Y14702460D01*
X43540150Y14734210D01*
X43516520Y14760670D01*
X43485030Y14771250D01*
G01X43725180Y14586030D02*
X43752750Y14623090D01*
X43776370Y14644250D01*
X43807870Y14654830D01*
X43835430Y14644250D01*
X43855110Y14623090D01*
X43870860Y14591330D01*
X43874800Y14554290D01*
X43870860Y14522540D01*
X43855110Y14490780D01*
X43831480Y14464330D01*
X43803930Y14453750D01*
X43772430Y14464330D01*
X43744870Y14496070D01*
X43729120Y14543710D01*
X43725180Y14596620D01*
X43733060Y14665410D01*
X43744870Y14702460D01*
X43764550Y14739500D01*
X43792110Y14765960D01*
X43819670Y14771250D01*
X43847230Y14760670D01*
X43866920Y14734210D01*
G01X44107070Y14453750D02*
X44114950Y14522540D01*
X44126760Y14580740D01*
X44142510Y14633670D01*
X44162190Y14691870D01*
X44193690Y14771250D01*
X44036210D01*
G01X44429910Y14453750D02*
Y14771250D01*
X44382670Y14707750D01*
G01Y14453750D02*
X44477150D01*
G01X42855110Y15406250D02*
X42823610Y15395670D01*
X42799990Y15369210D01*
X42784240Y15337460D01*
X42772430Y15295120D01*
X42768500Y15247500D01*
X42772430Y15199870D01*
X42784240Y15157540D01*
X42799990Y15125780D01*
X42823610Y15099330D01*
X42855110Y15088750D01*
X42886600Y15099330D01*
X42910230Y15125780D01*
X42925980Y15157540D01*
X42937790Y15199870D01*
X42941720Y15247500D01*
X42937790Y15295120D01*
X42925980Y15337460D01*
X42910230Y15369210D01*
X42886600Y15395670D01*
X42855110Y15406250D01*
G01X43170070Y15078170D02*
X43162190Y15083460D01*
Y15094040D01*
X43170070Y15099330D01*
X43177950Y15094040D01*
Y15083460D01*
X43170070Y15078170D01*
G01X43477150Y15088750D02*
X43485030Y15157540D01*
X43496840Y15215740D01*
X43512590Y15268670D01*
X43532270Y15326870D01*
X43563770Y15406250D01*
X43406290D01*
G01X43799990Y15088750D02*
X43827550Y15094040D01*
X43859040Y15109910D01*
X43878730Y15136360D01*
X43886600Y15173420D01*
X43878730Y15210450D01*
X43855110Y15242200D01*
X43819670Y15258090D01*
X43780310D01*
X43756680Y15268670D01*
X43736990Y15295120D01*
X43729120Y15332160D01*
X43740940Y15369210D01*
X43768490Y15395670D01*
X43799990Y15406250D01*
X43831480Y15395670D01*
X43859040Y15369210D01*
X43870860Y15332160D01*
X43862980Y15295120D01*
X43843300Y15268670D01*
X43819670Y15258090D01*
X43780310D01*
X43744870Y15242200D01*
X43721250Y15210450D01*
X43713380Y15173420D01*
X43721250Y15136360D01*
X43740940Y15109910D01*
X43772430Y15094040D01*
X43799990Y15088750D01*
G01X44040140Y15221030D02*
X44067710Y15258090D01*
X44091330Y15279250D01*
X44122830Y15289830D01*
X44150390Y15279250D01*
X44170070Y15258090D01*
X44185820Y15226330D01*
X44189760Y15189290D01*
X44185820Y15157540D01*
X44170070Y15125780D01*
X44146440Y15099330D01*
X44118890Y15088750D01*
X44087390Y15099330D01*
X44059830Y15131070D01*
X44044080Y15178710D01*
X44040140Y15231620D01*
X44048020Y15300410D01*
X44059830Y15337460D01*
X44079510Y15374500D01*
X44107070Y15400960D01*
X44134630Y15406250D01*
X44162190Y15395670D01*
X44181880Y15369210D01*
G01X44362980Y15125780D02*
X44390540Y15099330D01*
X44422030Y15088750D01*
X44453530Y15099330D01*
X44481090Y15131070D01*
X44500780Y15178710D01*
X44508650Y15226330D01*
Y15284540D01*
X44500780Y15332160D01*
X44481090Y15374500D01*
X44457470Y15395670D01*
X44429910Y15406250D01*
X44398410Y15395670D01*
X44374790Y15374500D01*
X44359040Y15342750D01*
X44351170Y15300410D01*
X44359040Y15263380D01*
X44378730Y15226330D01*
X44402350Y15205160D01*
X44429910Y15199870D01*
X44461400Y15210450D01*
X44485030Y15236910D01*
X44508650Y15284540D01*
G01X43170070Y16041250D02*
X43138570Y16030670D01*
X43114950Y16004210D01*
X43099200Y15972460D01*
X43087390Y15930120D01*
X43083460Y15882500D01*
X43087390Y15834870D01*
X43099200Y15792540D01*
X43114950Y15760780D01*
X43138570Y15734330D01*
X43170070Y15723750D01*
X43201560Y15734330D01*
X43225190Y15760780D01*
X43240940Y15792540D01*
X43252750Y15834870D01*
X43256680Y15882500D01*
X43252750Y15930120D01*
X43240940Y15972460D01*
X43225190Y16004210D01*
X43201560Y16030670D01*
X43170070Y16041250D01*
G01X43485030Y15713170D02*
X43477150Y15718460D01*
Y15729040D01*
X43485030Y15734330D01*
X43492910Y15729040D01*
Y15718460D01*
X43485030Y15713170D01*
G01X43713380Y15787250D02*
X43736990Y15750200D01*
X43768490Y15729040D01*
X43803930Y15723750D01*
X43835430Y15729040D01*
X43866920Y15755490D01*
X43886600Y15787250D01*
X43890540Y15819000D01*
X43882670Y15856030D01*
X43855110Y15882500D01*
X43827550Y15893090D01*
X43792110D01*
G01X43827550D02*
X43851170Y15908960D01*
X43870860Y15935410D01*
X43878730Y15967160D01*
X43870860Y15998920D01*
X43851170Y16025370D01*
X43815740Y16041250D01*
X43780310Y16035960D01*
X43744870Y16014790D01*
G01X44028340Y15787250D02*
X44051950Y15750200D01*
X44083450Y15729040D01*
X44118890Y15723750D01*
X44150390Y15729040D01*
X44181880Y15755490D01*
X44201560Y15787250D01*
X44205500Y15819000D01*
X44197630Y15856030D01*
X44170070Y15882500D01*
X44142510Y15893090D01*
X44107070D01*
G01X44142510D02*
X44166130Y15908960D01*
X44185820Y15935410D01*
X44193690Y15967160D01*
X44185820Y15998920D01*
X44166130Y16025370D01*
X44130700Y16041250D01*
X44095270Y16035960D01*
X44059830Y16014790D01*
G01X46949590Y13183750D02*
Y13501250D01*
X47044080D01*
X47075570Y13485370D01*
X47099200Y13448330D01*
X47107070Y13406000D01*
X47099200Y13363670D01*
X47079510Y13331910D01*
X47044080Y13316030D01*
X46949590D01*
G01X47264550Y13501250D02*
Y13183750D01*
X47422030D01*
G01X47559820D02*
X47658250Y13501250D01*
X47756680Y13183750D01*
G01X47721240Y13294870D02*
X47595250D01*
G01X47973210Y13501250D02*
Y13183750D01*
G01X47882660Y13501250D02*
X48063760D01*
G01X48366910Y13183750D02*
X48209430D01*
Y13501250D01*
X48366910D01*
G01X48303920Y13347800D02*
X48209430D01*
G01X48516520Y13183750D02*
Y13501250D01*
X48595250D01*
X48626750Y13485370D01*
X48650370Y13464210D01*
X48670060Y13432460D01*
X48685810Y13395410D01*
X48689740Y13342500D01*
X48685810Y13289580D01*
X48670060Y13252540D01*
X48650370Y13220780D01*
X48626750Y13199620D01*
X48595250Y13183750D01*
X48516520D01*
G01X46201560Y16835000D02*
Y13025000D01*
G01X46307860Y13818750D02*
Y14136250D01*
X46488960Y13818750D01*
Y14136250D01*
G01X46713370Y13818750D02*
X46681870Y13824040D01*
X46654320Y13845200D01*
X46630690Y13876960D01*
X46614940Y13914000D01*
X46607070Y13956330D01*
Y13998670D01*
X46614940Y14041000D01*
X46630690Y14078040D01*
X46654320Y14109790D01*
X46681870Y14130960D01*
X46713370Y14136250D01*
X46744860Y14130960D01*
X46772420Y14109790D01*
X46796050Y14078040D01*
X46811800Y14041000D01*
X46819670Y13998670D01*
Y13956330D01*
X46811800Y13914000D01*
X46796050Y13876960D01*
X46772420Y13845200D01*
X46744860Y13824040D01*
X46713370Y13818750D01*
G01X46937780D02*
Y14136250D01*
X47118880Y13818750D01*
Y14136250D01*
G01X47292110Y13924580D02*
X47394470D01*
G01X47579510Y13818750D02*
Y14136250D01*
X47674000D01*
X47705490Y14120370D01*
X47729120Y14083330D01*
X47736990Y14041000D01*
X47729120Y13998670D01*
X47709430Y13966910D01*
X47674000Y13951030D01*
X47579510D01*
G01X47894470Y14136250D02*
Y13818750D01*
X48051950D01*
G01X48189740D02*
X48288170Y14136250D01*
X48386600Y13818750D01*
G01X48351160Y13929870D02*
X48225170D01*
G01X48603130Y14136250D02*
Y13818750D01*
G01X48512580Y14136250D02*
X48693680D01*
G01X48996830Y13818750D02*
X48839350D01*
Y14136250D01*
X48996830D01*
G01X48933840Y13982800D02*
X48839350D01*
G01X49146440Y13818750D02*
Y14136250D01*
X49225170D01*
X49256670Y14120370D01*
X49280290Y14099210D01*
X49299980Y14067460D01*
X49315730Y14030410D01*
X49319660Y13977500D01*
X49315730Y13924580D01*
X49299980Y13887540D01*
X49280290Y13855780D01*
X49256670Y13834620D01*
X49225170Y13818750D01*
X49146440D01*
G01X46949590Y14453750D02*
Y14771250D01*
X47044080D01*
X47075570Y14755370D01*
X47099200Y14718330D01*
X47107070Y14676000D01*
X47099200Y14633670D01*
X47079510Y14601910D01*
X47044080Y14586030D01*
X46949590D01*
G01X47264550Y14771250D02*
Y14453750D01*
X47422030D01*
G01X47559820D02*
X47658250Y14771250D01*
X47756680Y14453750D01*
G01X47721240Y14564870D02*
X47595250D01*
G01X47973210Y14771250D02*
Y14453750D01*
G01X47882660Y14771250D02*
X48063760D01*
G01X48366910Y14453750D02*
X48209430D01*
Y14771250D01*
X48366910D01*
G01X48303920Y14617800D02*
X48209430D01*
G01X48516520Y14453750D02*
Y14771250D01*
X48595250D01*
X48626750Y14755370D01*
X48650370Y14734210D01*
X48670060Y14702460D01*
X48685810Y14665410D01*
X48689740Y14612500D01*
X48685810Y14559580D01*
X48670060Y14522540D01*
X48650370Y14490780D01*
X48626750Y14469620D01*
X48595250Y14453750D01*
X48516520D01*
G01X46949590Y15088750D02*
Y15406250D01*
X47044080D01*
X47075570Y15390370D01*
X47099200Y15353330D01*
X47107070Y15311000D01*
X47099200Y15268670D01*
X47079510Y15236910D01*
X47044080Y15221030D01*
X46949590D01*
G01X47264550Y15406250D02*
Y15088750D01*
X47422030D01*
G01X47559820D02*
X47658250Y15406250D01*
X47756680Y15088750D01*
G01X47721240Y15199870D02*
X47595250D01*
G01X47973210Y15406250D02*
Y15088750D01*
G01X47882660Y15406250D02*
X48063760D01*
G01X48366910Y15088750D02*
X48209430D01*
Y15406250D01*
X48366910D01*
G01X48303920Y15252800D02*
X48209430D01*
G01X48516520Y15088750D02*
Y15406250D01*
X48595250D01*
X48626750Y15390370D01*
X48650370Y15369210D01*
X48670060Y15337460D01*
X48685810Y15300410D01*
X48689740Y15247500D01*
X48685810Y15194580D01*
X48670060Y15157540D01*
X48650370Y15125780D01*
X48626750Y15104620D01*
X48595250Y15088750D01*
X48516520D01*
G01X46949590Y15723750D02*
Y16041250D01*
X47044080D01*
X47075570Y16025370D01*
X47099200Y15988330D01*
X47107070Y15946000D01*
X47099200Y15903670D01*
X47079510Y15871910D01*
X47044080Y15856030D01*
X46949590D01*
G01X47264550Y16041250D02*
Y15723750D01*
X47422030D01*
G01X47559820D02*
X47658250Y16041250D01*
X47756680Y15723750D01*
G01X47721240Y15834870D02*
X47595250D01*
G01X47973210Y16041250D02*
Y15723750D01*
G01X47882660Y16041250D02*
X48063760D01*
G01X48366910Y15723750D02*
X48209430D01*
Y16041250D01*
X48366910D01*
G01X48303920Y15887800D02*
X48209430D01*
G01X48516520Y15723750D02*
Y16041250D01*
X48595250D01*
X48626750Y16025370D01*
X48650370Y16004210D01*
X48670060Y15972460D01*
X48685810Y15935410D01*
X48689740Y15882500D01*
X48685810Y15829580D01*
X48670060Y15792540D01*
X48650370Y15760780D01*
X48626750Y15739620D01*
X48595250Y15723750D01*
X48516520D01*
G01X46949590Y16358750D02*
Y16676250D01*
X47044080D01*
X47075570Y16660370D01*
X47099200Y16623330D01*
X47107070Y16581000D01*
X47099200Y16538670D01*
X47079510Y16506910D01*
X47044080Y16491030D01*
X46949590D01*
G01X47264550Y16676250D02*
Y16358750D01*
X47422030D01*
G01X47559820D02*
X47658250Y16676250D01*
X47756680Y16358750D01*
G01X47721240Y16469870D02*
X47595250D01*
G01X47973210Y16676250D02*
Y16358750D01*
G01X47882660Y16676250D02*
X48063760D01*
G01X48366910Y16358750D02*
X48209430D01*
Y16676250D01*
X48366910D01*
G01X48303920Y16522800D02*
X48209430D01*
G01X48516520Y16358750D02*
Y16676250D01*
X48595250D01*
X48626750Y16660370D01*
X48650370Y16639210D01*
X48670060Y16607460D01*
X48685810Y16570410D01*
X48689740Y16517500D01*
X48685810Y16464580D01*
X48670060Y16427540D01*
X48650370Y16395780D01*
X48626750Y16374620D01*
X48595250Y16358750D01*
X48516520D01*
G01X49429900Y16835000D02*
Y13025000D01*
G01X50099190Y16358750D02*
X50067690Y16364040D01*
X50040140Y16385200D01*
X50016510Y16416960D01*
X50000760Y16454000D01*
X49992890Y16496330D01*
Y16538670D01*
X50000760Y16581000D01*
X50016510Y16618040D01*
X50040140Y16649790D01*
X50067690Y16670960D01*
X50099190Y16676250D01*
X50130680Y16670960D01*
X50158240Y16649790D01*
X50181870Y16618040D01*
X50197620Y16581000D01*
X50205490Y16538670D01*
Y16496330D01*
X50197620Y16454000D01*
X50181870Y16416960D01*
X50158240Y16385200D01*
X50130680Y16364040D01*
X50099190Y16358750D01*
G01X50130680Y16443420D02*
X50177930Y16358750D01*
G01X50414150Y16676250D02*
Y16358750D01*
G01X50323600Y16676250D02*
X50504700D01*
G01X50729110Y16358750D02*
Y16501620D01*
X50650370Y16676250D01*
G01X50807850D02*
X50729110Y16501620D01*
G01X50461390Y13183750D02*
Y13501250D01*
X50315720Y13273710D01*
X50512580D01*
G01X50461390Y13818750D02*
Y14136250D01*
X50315720Y13908710D01*
X50512580D01*
G01X50256670Y14453750D02*
Y14771250D01*
X50209430Y14707750D01*
G01Y14453750D02*
X50303910D01*
G01X50485020Y14501360D02*
X50508630Y14474910D01*
X50536190Y14459040D01*
X50571630Y14453750D01*
X50607070Y14464330D01*
X50634620Y14485490D01*
X50654310Y14522540D01*
X50658240Y14564870D01*
X50650370Y14607200D01*
X50630680Y14633670D01*
X50603120Y14654830D01*
X50575570Y14660120D01*
X50548010Y14654830D01*
X50512580Y14633670D01*
X50524390Y14771250D01*
X50630680D01*
G01X50256670Y15088750D02*
Y15406250D01*
X50209430Y15342750D01*
G01Y15088750D02*
X50303910D01*
G01X50496820Y15353330D02*
X50520450Y15385080D01*
X50548010Y15400960D01*
X50579510Y15406250D01*
X50618870Y15395670D01*
X50646440Y15369210D01*
X50654310Y15337460D01*
X50650370Y15305700D01*
X50634620Y15279250D01*
X50555880Y15226330D01*
X50520450Y15189290D01*
X50496820Y15136360D01*
X50488950Y15088750D01*
X50654310D01*
G01X50181860Y15988330D02*
X50205490Y16020080D01*
X50233050Y16035960D01*
X50264550Y16041250D01*
X50303910Y16030670D01*
X50331480Y16004210D01*
X50339350Y15972460D01*
X50335410Y15940700D01*
X50319660Y15914250D01*
X50240920Y15861330D01*
X50205490Y15824290D01*
X50181860Y15771360D01*
X50173990Y15723750D01*
X50339350D01*
G01X50618870D02*
Y16041250D01*
X50473200Y15813710D01*
X50670060D01*
M02*
